<svg xmlns="http://www.w3.org/2000/svg" viewBox="0 0 100 125" x="0px" y="0px"><title>Sofa</title><path d="M50.5332,38.03772c.0105,1.16071.00928,2.32635-.05566,3.46228-.09583,1.67657-.05554,5.44177-.017,7.81555a8.08583,8.08583,0,0,1,4.03748-1.63586c.97644-.17426,3.4021-.31171,5.9071-.4101a87.03987,87.03987,0,0,1,.33557-9.27148C59.064,37.76941,53.20923,37.07233,50.5332,38.03772Z"/><path d="M70.91187,40.18964c-.37256.93487-.79261,1.9718-1.20655,2.98535,3.26294-.27259,10.7229,1.061,14.832,2.97656a18.15673,18.15673,0,0,1,.574-1.90741c.115-.31207.25793-.66736.41919-1.0498C79.56323,40.192,72.44812,40.156,70.91187,40.18964Z"/><path d="M68.06738,51.20508c3.3385.06219,13.96387.35858,17.186.44916a1.48982,1.48982,0,0,0-.92432-.55365A.49768.49768,0,0,1,84.131,51.059l-.00207-.00043a28.34533,28.34533,0,0,0-7.42481-2.02148c-3.47558-.28906-9.54785-.36426-9.6084-.36523a.50216.50216,0,0,1-.41211-.22559.48845.48845,0,0,1-.06042-.35309c-1.31433.01129-3.49207.06226-5.66907.14508-.00891.00073-.01636.00562-.02539.00586H60.915c-.00659,0-.012-.00342-.01856-.00366-2.63549.10089-5.23779.24744-6.22265.42358-2.78906.49707-4.19336,1.419-4.17383,2.73926.00146.0965.0083.18213.01074.27649C50.98755,51.66113,64.17969,51.128,68.06738,51.20508Z"/><path d="M76.78711,48.041a27.4984,27.4984,0,0,1,7.10449,1.83886c.06519-.62488.19458-1.61816.41992-2.728-4.33593-2.11316-12.59155-3.395-15.04126-2.91425-.58386,1.42261-1.114,2.70142-1.42358,3.446C69.58691,47.71387,74.00391,47.80957,76.78711,48.041Z"/><path d="M15.46265,46.15161c4.11071-1.91559,11.56884-3.24707,14.83227-2.97589-.41382-1.01324-.83374-2.05-1.2063-2.98474-1.5354-.03046-8.656.00378-14.61914,3.00336.16138.38244.3042.73773.41919,1.0498A18.16277,18.16277,0,0,1,15.46265,46.15161Z"/><path d="M32.15332,47.68359c-.30957-.74456-.83984-2.02343-1.42358-3.446-2.44678-.48065-10.7052.80121-15.04126,2.91431.22534,1.10986.35473,2.10314.41992,2.728A27.50042,27.50042,0,0,1,23.21191,48.041C25.99609,47.80957,30.41309,47.71387,32.15332,47.68359Z"/><path d="M39.25635,37.99847a85.47757,85.47757,0,0,1,.33862,9.26679c2.5044.09985,4.92835.23981,5.907.41443a8.31492,8.31492,0,0,1,3.95655,1.56213c-.0387-2.38721-.077-6.09216.021-7.79846.06323-1.103.06421-2.24493.0542-3.38409C46.886,37.05774,40.94263,37.76813,39.25635,37.99847Z"/><path d="M28.69019,39.183l-.01246-.03161c-.37036-.94666-.69226-1.93067-.9674-2.86383-1.39124-.01953-6.96485.13623-14.93592,3.23706q.22558.46061.44678.9234l.00537.00708.00244.00921c.29712.62171.5824,1.23511.84082,1.81287A34.1721,34.1721,0,0,1,28.69019,39.183Z"/><path d="M84.86511,50.20526a3.0513,3.0513,0,0,1,1.76575,1.7749c.00549.01258.01074.0246.01526.03772a5.82085,5.82085,0,0,1,.269.76538c.06165-.19409.11194-.38159.18152-.58014l.07422-.21289c1.39136-3.97924,2.6145-7.45141,5.77344-7.99194l-5.48511-2.65576c-.575,1.218-1.09253,2.38538-1.4104,3.24731A24.50519,24.50519,0,0,0,84.86511,50.20526Z"/><path d="M85.47449,68.62305h-70.949c.02393.2926.04114.5578.04895.78735C18.127,69.98627,41.48779,70.168,50,70.168s31.87305-.1817,35.42554-.75757C85.43335,69.18085,85.45056,68.91565,85.47449,68.62305Z"/><path d="M83.52441,58.87988c-.61914,0-1.29882-.04492-2.03027-.09277-.55469-.03711-1.13965-.0752-1.74707-.09668-3.94238-.14063-14.07031-.15234-17.27148-.08008l-.86719.02051c-3.44434.08691-8.16309.2041-9.82715-.64356A3.96747,3.96747,0,0,1,50,55.38184a3.967,3.967,0,0,1-1.78223,2.60546c-1.66211.84864-6.38086.73145-9.82617.64356l-.86719-.02051c-3.2041-.07422-13.32812-.06055-17.27148.08008-.60742.02148-1.19238.05957-1.74707.09668-.73145.04785-1.41113.09277-2.03027.09277a4.63616,4.63616,0,0,1-2.4441-.52185c.0304,1.00135-.00085,1.92188-.03149,2.765-.01953.52246-.03711,1.01465-.03711,1.47851,0,.93653.16309,2.33985.32031,3.69727.0575.49536.105.92389.14722,1.32422H85.56958c.04224-.40033.08972-.82886.14722-1.32422.15722-1.35742.32031-2.76074.32031-3.69727,0-.46386-.01758-.956-.03711-1.47851-.03064-.84314-.06189-1.76367-.03149-2.765A4.63616,4.63616,0,0,1,83.52441,58.87988Z"/><path d="M14.73645,51.65454c3.20947-.09021,13.85388-.38721,17.19519-.44946,3.9126-.07807,17.08093.45593,17.55762.47473.00244-.09192.009-.17542.0105-.26935l-.00025-.01141c.01636-1.318-1.38745-2.23847-4.17334-2.735-.98437-.17584-3.59521-.32086-6.235-.42114l-.00623.00122h-.01367l-.01-.00232c-2.1814-.08258-4.37293-.13452-5.68433-.14752a.48808.48808,0,0,1-.06054.352.50216.50216,0,0,1-.41211.22559c-.06055.001-6.13282.07617-9.60938.36523a28.34606,28.34606,0,0,0-7.42383,2.02148L15.869,51.059a.49768.49768,0,0,1-.19812.04157A1.38772,1.38772,0,0,0,14.73645,51.65454Z"/><path d="M72.28955,36.2876c-.27515.93316-.59692,1.91711-.96728,2.86377l-.01221.03082A34.13168,34.13168,0,0,1,85.93018,42.277c.2583-.5777.5437-1.1911.84082-1.81275l.00244-.00921.00537-.00708q.22083-.462.44678-.92334C79.25415,36.42456,73.68091,36.26819,72.28955,36.2876Z"/><path d="M61.405,47.23236c2.32568-.0816,4.55334-.129,5.604-.13916.7295-1.75677,2.37989-5.74622,3.38159-8.30707.05762-.14715.1128-.29669.1681-.446a27.17608,27.17608,0,0,0-8.817-.33612A86.99515,86.99515,0,0,0,61.405,47.23236Z"/><path d="M29.44116,38.34015c.05542.14923.1106.29883.16822.446,1.00146,2.56024,2.65136,6.54865,3.3811,8.306,1.05908.006,3.28027.0528,5.60473.13544a85.66091,85.66091,0,0,0-.34008-9.22412A27.19319,27.19319,0,0,0,29.44116,38.34015Z"/><path d="M27.42554,35.28271c-.34082-1.25762-.582-2.34106-.7146-2.979a36.15822,36.15822,0,0,1-6.83008,1.85645c-3.50781.62207-7.57617,1.03222-9.26367,1.1875.4165.74578,1.04883,1.95166,1.71179,3.2774C20.09717,35.5871,25.56421,35.28192,27.42554,35.28271Z"/><path d="M6.24121,70.05566c.0127,0,.02319.00623.03565.00715.9281.08282,2.873.14221,6.91162.072.14843-.002.27636-.00391.38183-.00586a2.5719,2.5719,0,0,0,.01587-.2649l.00073-.0108c.01294-.76715-.16137-2.27344-.29687-3.43915a38.19614,38.19614,0,0,1-.32715-3.8125c0-.47558.01856-.97949.03809-1.51465a29.21239,29.21239,0,0,0-.08179-4.26855,4.71775,4.71775,0,0,1-.15552-1.13129A18.81945,18.81945,0,0,0,11.96,52.5332l-.07422-.21289C10.38184,48.02246,9.2959,44.917,6.17383,44.917a3.15106,3.15106,0,0,0-2.47754.88672C2.62207,46.96484,2.291,49.4082,2.62305,53.72852c.53711,6.98339,2.21289,15.15039,2.93261,16.22265a3.4207,3.4207,0,0,0,.6731.107Z"/><path d="M12.8291,51.99023l.07422.21289c.06958.19855.11987.38611.18152.58021a5.81476,5.81476,0,0,1,.26892-.76539c.00464-.01318.00977-.0252.0155-.03784a3.05133,3.05133,0,0,1,1.76551-1.77478,24.50278,24.50278,0,0,0-1.1836-5.61548c-.31787-.86193-.83545-2.02929-1.4104-3.24731L7.05566,43.99829C10.2146,44.53882,11.43774,48.011,12.8291,51.99023Z"/><path d="M87.24023,71.14154l.8584,1.046h5.16016V71.09387c-.73657.04566-1.76343.07215-3.22852.07215Q88.83972,71.166,87.24023,71.14154Z"/><path d="M14.30859,57.34375c.7168.6709,2.22266.57227,4.13184.44531.56445-.03711,1.15918-.07617,1.77734-.09863,3.957-.13867,14.11621-.15332,17.33008-.08008l.86817.02149c2.958.07226,7.91113.19824,9.34765-.53516.91919-.4679,1.49964-2.02264,1.67774-4.41718-.57959-.0238-13.62964-.54925-17.49121-.47442-3.59144.067-15.63965.4057-17.78016.46618a8.30992,8.30992,0,0,0-.41711,2.85413l.00049.00971q.09814.58858.15845,1.14575A1.56107,1.56107,0,0,0,14.30859,57.34375Z"/><path d="M93.82617,44.917c-3.12207,0-4.208,3.10547-5.71191,7.40332L88.04,52.5332a18.81945,18.81945,0,0,0-.80371,3.15387,4.71775,4.71775,0,0,1-.15552,1.13129,29.21239,29.21239,0,0,0-.08179,4.26855c.01953.53516.03809,1.03907.03809,1.51465a38.19614,38.19614,0,0,1-.32715,3.8125c-.1355,1.16571-.30981,2.672-.29687,3.43915l.00073.0108a2.5719,2.5719,0,0,0,.01587.2649c.10547.00195.2334.0039.38183.00586,4.03943.07019,5.98291.011,6.91065-.07172.01282-.001.02368-.00739.03662-.00739l.01294.00257a3.40928,3.40928,0,0,0,.67261-.10706c.71972-1.07226,2.3955-9.23926,2.93261-16.22265.332-4.32032.001-6.76368-1.07324-7.92481A3.15106,3.15106,0,0,0,93.82617,44.917Z"/><path d="M9.96973,71.166c-1.46509,0-2.49195-.02649-3.22852-.07215V72.1875h5.16016l.8584-1.046Q11.15906,71.16617,9.96973,71.166Z"/><path d="M50.50586,33.24023,50.5,33.64941c-.01172.94141.00391,1.917.01953,2.90528.0022.143.00195.28979.004.43359,2.96948-.871,8.42712-.244,10.2384.00208-.16638-3.36505-.28772-6.55524-.3302-7.71546-2.32751-.08459-4.55627-.17639-6.18078-.24365-1.05567-.04395-1.85547-.07715-2.25879-.09082a1.23405,1.23405,0,0,0-.97266.28906c-.49609.47559-.50488,1.55274-.51269,2.418l-.001.07178C50.5188,32.21729,50.51343,32.73016,50.50586,33.24023Z"/><path d="M26.87305,31.15234a.49838.49838,0,0,1,.70019.36328A50.13343,50.13343,0,0,0,29.105,37.38678a28.6772,28.6772,0,0,1,9.14258-.397c.15723-3.37238.27441-6.476.31824-7.67945-4.16346.145-8.41993.25281-9.973.14472-3.6582-.26367-13.2705-.21192-14.18066.39258-.37463.35778-.61768,2.339-.65283,4.16925,1.80371-.207,3.96618-.48975,5.94775-.84113A32.61,32.61,0,0,0,26.87305,31.15234Z"/><path d="M73.28906,32.30371c-.13257.638-.3739,1.72156-.71472,2.97937,1.861-.00049,7.32727.30377,15.09668,3.342.663-1.32574,1.29529-2.53162,1.71179-3.2774-1.6875-.15528-5.75586-.56543-9.26367-1.1875A36.15822,36.15822,0,0,1,73.28906,32.30371Z"/><path d="M61.75732,36.9892a28.6813,28.6813,0,0,1,9.13782.39734,50.06457,50.06457,0,0,0,1.53162-5.87092.49976.49976,0,0,1,.70019-.36328,32.74687,32.74687,0,0,0,7.166,2.02344c1.98169.35132,4.144.6341,5.94751.84107-.036-1.831-.2804-3.81269-.66919-4.18287-.89356-.59179-10.50684-.64062-14.16406-.3789-1.5542.1087-5.81006.00079-9.9729-.14447C61.47864,30.52039,61.59717,33.64569,61.75732,36.9892Z"/><path d="M39.24316,36.98969c1.82715-.24787,7.32618-.87745,10.28052.014-.0022-.14386-.002-.29034-.00415-.43341-.01562-.998-.03125-1.9834-.01953-2.93261l.00586-.41309c.00513-.34174.00915-.69287.00732-1.04065A.47318.47318,0,0,1,49.5,32.10742c.00366-.108.00439-.22613.00574-.34338a4.00147,4.00147,0,0,0-.61512-2.5365,1.09748,1.09748,0,0,0-.88281-.28711c-.40332.01367-1.20312.04687-2.25879.09082-1.62426.06726-3.853.15894-6.18066.24341C39.52612,30.42847,39.40649,33.59479,39.24316,36.98969Z"/><path d="M85.833,52.67139c-2.13111-.06018-14.18994-.3993-17.78418-.46631-3.85108-.07581-16.9104.45062-17.49024.47442.1781,2.3946.75855,3.94928,1.67676,4.41718,1.43848.7334,6.39063.60937,9.34863.53516l.86817-.02149c3.21484-.07324,13.374-.05859,17.33008.08008.61816.02246,1.21289.06152,1.77734.09863,1.9082.126,3.415.22461,4.13184-.44531a1.56107,1.56107,0,0,0,.39672-.6629q.05988-.55728.15845-1.14575l.00049-.00971A8.22828,8.22828,0,0,0,85.833,52.67139Z"/><text x="0" y="115" fill="#000000" font-size="5px" font-weight="bold" font-family="'Helvetica Neue', Helvetica, Arial-Unicode, Arial, Sans-serif">Created by Tom Fricker</text><text x="0" y="120" fill="#000000" font-size="5px" font-weight="bold" font-family="'Helvetica Neue', Helvetica, Arial-Unicode, Arial, Sans-serif">from the Noun Project</text></svg>