<svg xmlns="http://www.w3.org/2000/svg" xmlns:xlink="http://www.w3.org/1999/xlink" version="1.1" x="0px" y="0px" viewBox="0 0 100 125" enable-background="new 0 0 100 100" xml:space="preserve"><g><path d="M77.331,2.5H22.669c-1.047,0-1.896,0.849-1.896,1.896v89.102c0,1.047,0.849,1.896,1.896,1.896h0.632v1.267   c0,0.464,0.376,0.839,0.839,0.839h5.852c0.464,0,0.839-0.376,0.839-0.839v-1.267h38.337v1.267c0,0.464,0.376,0.839,0.839,0.839   h5.852c0.464,0,0.839-0.376,0.839-0.839v-1.267h0.632c1.047,0,1.896-0.849,1.896-1.896V4.396C79.227,3.349,78.378,2.5,77.331,2.5z    M24.565,6.292h16.43v13.192h-0.391V16.75h-7.375v2.733h-0.515c0.02-0.063,0.029-0.129,0.023-0.195l-0.714-7.75   c-0.023-0.257-0.239-0.454-0.498-0.454H26.59c-0.259,0-0.475,0.197-0.498,0.454l-0.715,7.75c-0.006,0.067,0.003,0.133,0.023,0.195   h-0.835V6.292z M26.423,18.833l0.623-6.75h4.023l0.622,6.75H26.423z M24.565,23.275h16.43v14.587h-1.858l0.79-8.778h-7.146   l0.79,8.778h-1.488v-4.341c0-1.818-1.474-3.292-3.292-3.292S25.5,31.703,25.5,33.521v4.341h-0.935V23.275z M24.565,41.653h30.649   v14.587h-0.947c0.294-0.026,0.528-0.354,0.528-0.766V44.578c0-0.428-0.252-0.776-0.563-0.776h-1.042   c-0.311,0-0.563,0.347-0.563,0.776v10.896c0,0.412,0.234,0.741,0.528,0.766h-1.171c0.294-0.026,0.528-0.354,0.528-0.766V44.578   c0-0.428-0.252-0.776-0.563-0.776h-1.042c-0.311,0-0.563,0.347-0.563,0.776v10.896c0,0.412,0.234,0.741,0.528,0.766h-1.171   c0.294-0.026,0.528-0.354,0.528-0.766V44.578c0-0.428-0.252-0.776-0.563-0.776h-1.042c-0.311,0-0.563,0.347-0.563,0.776v10.896   c0,0.412,0.234,0.741,0.528,0.766h-1.171c0.294-0.026,0.528-0.354,0.528-0.766V44.578c0-0.428-0.252-0.776-0.563-0.776h-1.042   c-0.311,0-0.563,0.347-0.563,0.776v10.896c0,0.412,0.234,0.741,0.528,0.766h-1.171c0.294-0.026,0.528-0.354,0.528-0.766V44.578   c0-0.428-0.252-0.776-0.563-0.776h-1.042c-0.311,0-0.563,0.347-0.563,0.776v10.896c0,0.412,0.234,0.741,0.528,0.766H42.86   c0.294-0.026,0.528-0.354,0.528-0.766V44.578c0-0.428-0.252-0.776-0.563-0.776h-1.042c-0.311,0-0.563,0.347-0.563,0.776v10.896   c0,0.412,0.234,0.741,0.528,0.766h-3.328c0.197-0.093,0.368-0.307,0.429-0.593l2.278-10.656c0.09-0.419-0.084-0.811-0.388-0.876   l-1.019-0.218c-0.304-0.065-0.623,0.222-0.712,0.641l-2.278,10.656c-0.09,0.419,0.084,0.811,0.388,0.876l0.796,0.17H24.565V41.653z    M54.676,53.297v0.195h-1.929v-0.195H54.676z M52.747,46.755V46.56h1.929v0.195H52.747z M52.395,53.297v0.195h-1.929v-0.195H52.395   z M50.466,46.755V46.56h1.929v0.195H50.466z M50.114,53.297v0.195h-1.929v-0.195H50.114z M48.184,46.755V46.56h1.929v0.195H48.184z    M47.832,53.297v0.195h-1.929v-0.195H47.832z M45.903,46.755V46.56h1.929v0.195H45.903z M45.551,53.297v0.195h-1.929v-0.195H45.551   z M43.622,46.755V46.56h1.929v0.195H43.622z M43.27,53.297v0.195h-1.929v-0.195H43.27z M41.341,46.755V46.56h1.929v0.195H41.341z    M39.19,53.493l-0.041,0.19l-1.887-0.403l0.041-0.19L39.19,53.493z M38.671,46.692l0.041-0.19l1.887,0.403l-0.041,0.19   L38.671,46.692z M24.565,60.032h30.649v14.587H39.258l0.43-0.116c0.433-0.118,0.675-0.619,0.539-1.118l-2.524-9.326   c-0.063-0.233-0.199-0.433-0.382-0.564c-0.196-0.14-0.433-0.187-0.647-0.128l-1.006,0.272c-0.432,0.117-0.674,0.618-0.539,1.117   l0.109,0.404c-0.102-0.153-0.259-0.259-0.445-0.259h-1.042c-0.311,0-0.563,0.277-0.563,0.619v8.695   c0,0.156,0.057,0.295,0.144,0.404h-0.572c0.181-0.195,0.302-0.48,0.302-0.82v-11.53c0-0.601-0.356-1.071-0.813-1.071H31.21   c-0.456,0-0.813,0.471-0.813,1.071v11.53c0,0.339,0.121,0.625,0.302,0.82h-0.675c0.163-0.172,0.269-0.413,0.269-0.687v-9.661   c0-0.517-0.364-0.938-0.813-0.938h-1.042c-0.448,0-0.813,0.42-0.813,0.938v9.661c0,0.274,0.106,0.515,0.269,0.687h-0.704   c0.174-0.187,0.29-0.457,0.29-0.775V62.948c0-0.575-0.356-1.026-0.813-1.026h-1.042c-0.456,0-0.813,0.451-0.813,1.026v10.896   c0,0.318,0.115,0.588,0.29,0.775h-0.538V60.032z M35.237,72.478v0.155h-1.929v-0.155H35.237z M33.307,67.257v-0.155h1.929v0.155   H33.307z M35.356,74.215v-8.622l2.299,8.489c0.059,0.22,0.187,0.406,0.356,0.537h-2.798C35.298,74.51,35.356,74.371,35.356,74.215z    M38.327,74.239c-0.089-0.063-0.158-0.168-0.19-0.288l-0.395-1.456l1.609-0.435l0.394,1.455c0.063,0.229-0.023,0.46-0.188,0.504   l-1.005,0.272C38.46,74.316,38.371,74.27,38.327,74.239z M37.566,71.846l-1.385-5.116l1.608-0.436l1.385,5.116L37.566,71.846z    M36.006,66.081l-0.395-1.455c-0.062-0.229,0.024-0.46,0.188-0.505l1.006-0.272c0.097-0.025,0.183,0.021,0.226,0.052   c0.088,0.063,0.158,0.168,0.19,0.289l0.394,1.456L36.006,66.081z M32.563,64.823v6.423h-1.666v-6.423H32.563z M30.897,64.117   v-1.848c0-0.327,0.165-0.571,0.313-0.571h1.041c0.147,0,0.313,0.244,0.313,0.571v1.848H30.897z M32.563,71.952v1.848   c0,0.327-0.165,0.571-0.313,0.571H31.21c-0.147,0-0.313-0.244-0.313-0.571v-1.848H32.563z M29.793,66.452v5.3h-1.667v-5.3H29.793z    M28.126,65.779v-1.508c0-0.237,0.144-0.438,0.313-0.438h1.042c0.169,0,0.313,0.2,0.313,0.438v1.508H28.126z M29.793,72.425v1.507   c0,0.237-0.144,0.438-0.313,0.438h-1.042c-0.169,0-0.313-0.201-0.313-0.438v-1.507H29.793z M26.98,65.375v6.042h-1.667v-6.042   H26.98z M25.313,64.681v-1.732c0-0.31,0.165-0.526,0.313-0.526h1.042c0.147,0,0.313,0.216,0.313,0.526v1.732H25.313z M26.98,72.112   v1.732c0,0.31-0.165,0.526-0.313,0.526h-1.042c-0.147,0-0.313-0.216-0.313-0.526v-1.732H26.98z M75.435,91.602h-50.87V78.411h50.87   V91.602z M75.435,74.619h-3.913c1.792-0.397,3.134-1.989,3.134-3.9c0-2.209-1.791-4-4-4s-4,1.791-4,4   c0,1.911,1.342,3.504,3.134,3.9h-6.266c1.495-0.399,2.601-1.749,2.601-3.369c0-1.933-1.567-3.5-3.5-3.5s-3.5,1.567-3.5,3.5   c0,1.62,1.107,2.97,2.601,3.369h-2.721V60.032h16.43V74.619z M75.435,56.241h-16.43V41.653h16.43V56.241z M63.731,29.907   l-1.386,5.117l-1.608-0.436l1.386-5.117L63.731,29.907z M62.299,28.822l0.394-1.455c0.063-0.229,0.258-0.383,0.416-0.341   l1.006,0.272c0.163,0.044,0.249,0.275,0.188,0.504l-0.395,1.456L62.299,28.822z M62.17,35.673l-0.394,1.455   c-0.063,0.229-0.258,0.384-0.416,0.341l-1.006-0.272c-0.077-0.021-0.125-0.08-0.151-0.125c-0.059-0.103-0.071-0.244-0.035-0.378   l0.395-1.456L62.17,35.673z M62.259,37.259l2.299-8.488v8.621c0,0.191,0.084,0.356,0.208,0.47h-2.972   C62.006,37.741,62.184,37.534,62.259,37.259z M66.605,35.655v0.155h-1.929v-0.155H66.605z M64.676,30.435v-0.155h1.929v0.155   H64.676z M69.016,28v6.422h-1.667V28H69.016z M67.349,27.294v-1.848c0-0.327,0.165-0.571,0.313-0.571h1.042   c0.147,0,0.313,0.244,0.313,0.571v1.848H67.349z M69.016,35.128v1.848c0,0.327-0.165,0.571-0.313,0.571h-1.042   c-0.147,0-0.313-0.244-0.313-0.571v-1.848H69.016z M71.786,29.628v5.301H70.12v-5.301H71.786z M70.12,28.956v-1.508   c0-0.237,0.144-0.438,0.313-0.438h1.041c0.169,0,0.313,0.201,0.313,0.438v1.508H70.12z M71.786,35.602v1.508   c0,0.237-0.144,0.438-0.313,0.438h-1.041c-0.169,0-0.313-0.201-0.313-0.438v-1.508H71.786z M74.599,28.552v6.042h-1.666v-6.042   H74.599z M72.933,27.857v-1.732c0-0.31,0.165-0.525,0.313-0.525h1.041c0.147,0,0.313,0.216,0.313,0.525v1.732H72.933z    M74.599,35.289v1.732c0,0.31-0.165,0.526-0.313,0.526h-1.041c-0.147,0-0.313-0.216-0.313-0.526v-1.732H74.599z M75.435,37.862   h-0.704c0.217-0.182,0.367-0.479,0.367-0.84V26.125c0-0.575-0.356-1.025-0.813-1.025h-1.041c-0.456,0-0.813,0.45-0.813,1.025   v10.896c0,0.361,0.15,0.658,0.367,0.84h-0.866c0.208-0.17,0.353-0.436,0.353-0.752v-9.661c0-0.517-0.364-0.938-0.813-0.938h-1.041   c-0.448,0-0.813,0.421-0.813,0.938v9.661c0,0.316,0.145,0.582,0.353,0.752h-0.834c0.223-0.189,0.376-0.503,0.376-0.885V25.446   c0-0.601-0.356-1.071-0.813-1.071h-1.042c-0.456,0-0.813,0.47-0.813,1.071v11.531c0,0.382,0.154,0.696,0.376,0.885h-0.709   c0.124-0.114,0.208-0.278,0.208-0.47v-8.695c0-0.342-0.252-0.619-0.563-0.619H65.12c-0.186,0-0.342,0.106-0.445,0.258l0.109-0.403   c0.135-0.5-0.107-1-0.539-1.117l-1.006-0.272c-0.431-0.115-0.894,0.194-1.029,0.693l-2.524,9.326   c-0.071,0.263-0.041,0.54,0.084,0.758c0.104,0.181,0.265,0.308,0.454,0.359l0.673,0.182h-16.11V23.275h30.649V37.862z    M75.435,19.483H62.078l0.784-0.168c0.304-0.065,0.477-0.457,0.388-0.876L60.973,7.784c-0.09-0.419-0.408-0.706-0.712-0.641   L59.242,7.36c-0.304,0.065-0.477,0.457-0.388,0.876l2.278,10.656c0.061,0.284,0.229,0.497,0.425,0.591h-3.315   c0.289-0.032,0.519-0.356,0.519-0.764V7.823c0-0.428-0.252-0.776-0.563-0.776h-1.042c-0.311,0-0.563,0.347-0.563,0.776v10.896   c0,0.407,0.23,0.732,0.519,0.764H55.96c0.289-0.032,0.519-0.356,0.519-0.764V7.823c0-0.428-0.252-0.776-0.563-0.776h-1.042   c-0.311,0-0.563,0.347-0.563,0.776v10.896c0,0.407,0.23,0.732,0.519,0.764h-1.153c0.289-0.032,0.519-0.356,0.519-0.764V7.823   c0-0.428-0.252-0.776-0.563-0.776h-1.042c-0.311,0-0.563,0.347-0.563,0.776v10.896c0,0.407,0.23,0.732,0.519,0.764h-1.153   c0.289-0.032,0.519-0.356,0.519-0.764V7.823c0-0.428-0.252-0.776-0.563-0.776h-1.042c-0.311,0-0.562,0.347-0.562,0.776v10.896   c0,0.407,0.23,0.732,0.519,0.764h-1.153c0.289-0.032,0.519-0.356,0.519-0.764V7.823c0-0.428-0.252-0.776-0.563-0.776h-1.042   c-0.311,0-0.563,0.347-0.563,0.776v10.896c0,0.407,0.23,0.732,0.519,0.764h-1.153c0.289-0.032,0.519-0.356,0.519-0.764V7.823   c0-0.428-0.252-0.776-0.563-0.776H45.75c-0.311,0-0.563,0.347-0.563,0.776v10.896c0,0.407,0.23,0.732,0.519,0.764h-0.92V6.292   h30.649V19.483z M62.679,16.335l0.041,0.19l-1.887,0.403l-0.041-0.19L62.679,16.335z M59.425,10.341l-0.041-0.19l1.887-0.403   l0.041,0.19L59.425,10.341z M58.642,16.542v0.195h-1.929v-0.195H58.642z M56.712,10V9.806h1.929V10H56.712z M56.361,16.542v0.195   h-1.929v-0.195H56.361z M54.431,10V9.806h1.929V10H54.431z M54.079,16.542v0.195H52.15v-0.195H54.079z M52.15,10V9.806h1.929V10   H52.15z M51.798,16.542v0.195h-1.929v-0.195H51.798z M49.869,10V9.806h1.929V10H49.869z M49.517,16.542v0.195h-1.929v-0.195H49.517   z M47.587,10V9.806h1.929V10H47.587z M47.236,16.542v0.195h-1.929v-0.195H47.236z M45.306,10V9.806h1.929V10H45.306z" /><path d="M41.433,80.388H27.409v9.237h14.024V80.388z M37.159,85.375h-5.477v-0.737h5.477V85.375z" /><path d="M57.012,80.388H42.988v9.237h14.024V80.388z M52.738,85.375h-5.477v-0.737h5.477V85.375z" /><path d="M72.591,80.388H58.567v9.237h14.024V80.388z M68.318,85.375h-5.477v-0.737h5.477V85.375z" /><path d="M63.361,18.833c0.09,0.419,0.408,0.706,0.712,0.641l1.019-0.218c0.304-0.065,0.477-0.457,0.388-0.876L63.202,7.725   c-0.09-0.419-0.408-0.706-0.712-0.641l-1.019,0.218c-0.304,0.065-0.477,0.457-0.388,0.876L63.361,18.833z M64.949,16.467   l-1.887,0.403l-0.041-0.19l1.887-0.403L64.949,16.467z M63.5,9.688l0.041,0.19l-1.887,0.403l-0.041-0.19L63.5,9.688z" /><path d="M38.511,44.056l-1.019-0.218c-0.304-0.065-0.623,0.222-0.712,0.641l-2.278,10.656c-0.09,0.419,0.084,0.811,0.388,0.876   l1.019,0.218c0.304,0.065,0.623-0.222,0.712-0.641l2.278-10.656C38.989,44.514,38.815,44.121,38.511,44.056z M36.92,53.625   l-1.887-0.403l0.041-0.19l1.887,0.403L36.92,53.625z M38.328,47.037l-1.887-0.403l0.041-0.19l1.887,0.403L38.328,47.037z" /><polygon points="68.969,49.563 67.281,48.479 67.281,56.229 69.583,56.229  " /><polygon points="72.542,52.125 70.687,52.688 70.24,56.229 72.542,56.229  " /><polygon points="60.667,56.229 66.583,56.229 66.583,46.125 67.104,46.125 67.104,44.521 60.146,44.521 60.146,46.125    60.667,46.125  " /></g><text x="15" y="115" fill="#000000" font-size="14px" font-weight="bold" font-family="'Helvetica Neue', Helvetica, Arial-Unicode, Arial, Sans-serif">bookshelf</text></svg>