<svg xmlns="http://www.w3.org/2000/svg" xmlns:xlink="http://www.w3.org/1999/xlink" version="1.1" x="0px" y="0px" viewBox="0 0 100 125" style="enable-background:new 0 0 100 100;" xml:space="preserve"><path d="M24.4106445,29.4135742c0.0015259,0.0062256,0.0057373,0.0108032,0.0073242,0.0169678l0.9399414,17.4219971V70.008606  c0,0.0006104,0,0.0012207,0,0.0018311v12.8474731c0,0.5522461,0.4477539,1,1,1s1-0.4477539,1-1l-0.0004883-11.34021  l16.7720947,7.090332l0.3411865,17.1121826c0.0112305,0.5454102,0.456543,0.9799805,0.9995117,0.9799805  c0.0068359,0,0.0136719,0,0.0205078,0c0.5522461-0.0112305,0.9907227-0.4677734,0.9799805-1.0200195l-0.3538208-17.7399902  l-0.1082153-5.4268799l27.4155884-7.611084l1.0571899,23.2779541c0.0244141,0.5361328,0.4667969,0.9545898,0.9980469,0.9545898  c0.015625,0,0.0307617-0.0004883,0.0463867-0.0009766c0.5517578-0.0249023,0.9785156-0.4926758,0.9536133-1.0444336  l-1.1030884-24.2877197c0.0342407-0.1547241,0.0444946-0.3155518-0.0009155-0.4788818  c-0.0046997-0.0169067-0.017395-0.0285645-0.0228882-0.0450439l-0.4333496-9.5422974  c0.0088501-0.0578613-0.0065308-0.1187134-0.0081177-0.1784058l-0.293396-6.4607544l1.2167358-0.3027954  c0.4511719-0.1123047,0.765625-0.5209961,0.7583008-0.9863281c-0.0078125-0.465332-0.3349609-0.8637695-0.7900391-0.9614258  l-22.0750122-4.7401733l-1.272644-35.8413696c-0.0200195-0.5517578-0.4711914-0.9931641-1.0351562-0.9638672  c-0.5517578,0.0195312-0.9833984,0.4829102-0.9638672,1.0351562l0.0244751,0.6885376l-25.0552979,5.953125l-0.0194702-0.3609009  c-0.0297852-0.5512695-0.5112305-0.9780273-1.0522461-0.9448242c-0.5517578,0.0297852-0.9746094,0.5009766-0.9448242,1.0522461  l0.9876709,18.3068848C24.3775635,29.1546631,24.3793945,29.2840576,24.4106445,29.4135742z M27.3565063,48.2822266  l16.2870483,5.9506836l0.1073608,5.3862915l-16.3942261-6.3320923L27.3565063,48.2822266z M27.3573608,69.3468628  l-0.0005493-13.9160767l16.4371948,6.3487549l0.2918701,14.6392212L27.3573608,69.3468628z M73.3311768,62.8527832  l-27.3637085,7.5966187l-0.1713257-8.5894165l7.553772-1.944519L52.9970703,66.15625  c-0.03125,0.5517578,0.390625,1.0239258,0.9418945,1.0551758c0.0195312,0.0009766,0.0385742,0.0014648,0.0576172,0.0014648  c0.5263672,0,0.9672852-0.4116211,0.9975586-0.9433594l0.388855-6.8773804l17.5853882-4.5268555L73.3311768,62.8527832z   M72.8756714,52.8241577L45.755188,59.8054199l-0.1096802-5.4987793l26.9924316-6.7176514L72.8756714,52.8241577z   M52.7607422,41.9433594l18.402832,3.9516602L44.6855469,52.484375l-14.7866211-5.402832L52.7607422,41.9433594z   M51.7269287,40.1258545l-24.4341431,5.4916992l-0.8446045-15.6658325L51.15448,24.005188L51.7269287,40.1258545z   M51.0828247,21.9868774c-0.0353394,0.0045776-0.069397-0.0046387-0.1047974,0.0038452l-24.6393433,5.9304199l-0.1607056-2.9815063  l24.7977905-5.9682617L51.0828247,21.9868774z M50.7643433,13.0176392l0.1389771,3.9142456l-24.8348389,5.9771729  l-0.211792-3.9284668L50.7643433,13.0176392z M50.5529175,7.0628052l0.1389771,3.9153442l-24.9446411,5.9718018  l-0.2125854-3.9428101L50.5529175,7.0628052z M53.6923828,71.5825195c0.5512695,0.03125,0.9731445,0.503418,0.9418945,1.0551758  l-0.2495117,4.4155273c-0.0302734,0.5317383-0.4711914,0.9433594-0.9975586,0.9433594  c-0.019043,0-0.0380859-0.0004883-0.0576172-0.0014648c-0.5512695-0.03125-0.9731445-0.503418-0.9418945-1.0551758  l0.2495117-4.4155273C52.668457,71.9736328,53.1318359,71.5639648,53.6923828,71.5825195z"/><text x="0" y="115" fill="#000000" font-size="5px" font-weight="bold" font-family="'Helvetica Neue', Helvetica, Arial-Unicode, Arial, Sans-serif">Created by Path Lord</text><text x="0" y="120" fill="#000000" font-size="5px" font-weight="bold" font-family="'Helvetica Neue', Helvetica, Arial-Unicode, Arial, Sans-serif">from the Noun Project</text></svg>