<svg xmlns="http://www.w3.org/2000/svg" xmlns:xlink="http://www.w3.org/1999/xlink" version="1.1" x="0px" y="0px" viewBox="0 0 100 125" style="enable-background:new 0 0 100 100;" xml:space="preserve"><path d="M63.7,97.4c-1.3-0.1-3,1.2-3.5,0.2c-0.7-1.2-1-2.9-0.8-4.5c0.2-1.7,0.3-3.4-0.1-5.1c-0.3-1-0.6-1.3-1.8-1  c-1.9,0.5-4,0.4-6,0.5c-3,0.2-6,0.7-9,0.6c-5.9-0.2-11.7,0.3-17.6,0c-0.7,0-1.3,0-2,0c-1.1-0.1-1.4,0.4-1.3,1.5c0,2-0.1,3.9-0.3,5.9  C21.1,96.6,20.6,97,19,97c-1,0-1.8-0.3-1.8-1.5c-0.1-2.1-0.2-4.3-0.1-6.4c0.1-1.2-0.2-2.1-1.3-2.5c-1-0.4-1.2-1.1-1.3-2  c-0.3-1.9-0.8-3.9-1.4-5.7c-0.8-2.4-1.6-4.8-0.1-7.5c-2.1,0.2-2.9-1-3.2-2.7c-0.1-0.3,0-0.7-0.1-1c-1.1-3.1,0.3-5.4,2.5-7.3  c0.9-0.8,1.1-1.5,1.1-2.5c-0.2-3-1.4-5.5-3.5-7.6c-1.1-1.1-2.1-2.3-2.6-3.8C6.5,45,7,43,8.5,42.2c1.4-0.8,2.7-1.6,4.6-1.2  c2.6,0.5,5.2,0.1,7.8,0.2c3.9,0.2,7.8,0.4,11.7,0.5c1.6,0.1,1.6-0.1,1.7-1.6c0.1-1.6-0.5-3.1-0.5-4.6c-0.1-4.8-0.7-9.6-1-14.4  c-0.3-4.1-0.3-8.3,0.8-12.4c0.6-2.2,1.5-4.3,3.5-5.7c1.6-1.1,3.7-0.7,5,0.8c0.3,0.3,0.5,0.6,0.8,0.9c0.5,0.6,1.1,0.7,1.6,0.1  c1.7-2.1,4.1-1.7,6.2-1.9C55.4,2.6,60.1,3,64.7,3c4.6,0,9.3,0.6,13.9,0.3c0.9-0.1,1.8,0.1,2.7,0.2c1.5,0.1,2.8,0.1,4.3-0.9  c2.1-1.3,4.6-1.4,7.1-0.7c1.5,0.5,1.3,2,1.2,2.9c-0.5,2.7-0.6,5.5-1.1,8.2c-0.9,4.7-1.6,9.5-2.2,14.2c-0.9,6.8-1.8,13.5-3.3,20.2  c-0.8,3.6-0.8,7.3-1.5,10.9c-1.1,6.1-2,12.2-2.9,18.3c-0.2,1.1-0.4,2.2-1.2,3.1c-0.6,0.7-0.8,1.5-0.8,2.5c0,1.9-0.2,3.8-0.2,5.6  c0,0.9-0.2,1.3-1.1,1.6c-3.3,1.2-3.4,1.2-3.1-2.3c0.1-1.1,0.1-2.3,0-3.4c-0.1-0.9-0.5-1.1-1.3-0.9c-1.8,0.4-3.4,1.2-5,1.9  c-1,0.4-2,0.8-3.3,0.6c-2.2-0.3-3.6,1.1-3.2,3.1C64.4,91.5,63.4,94.4,63.7,97.4z M83,4.5c-1.1-0.1-1.7-0.2-2.3-0.2  c-6.7-0.2-13.3-0.4-20-0.4c-4,0-8-0.1-12,0.6c-2.6,0.4-5.1,1.9-4.5,5.6c0.6,3.6,0.6,7.1,0.3,10.7c-0.3,5.1-0.8,10.2-1.2,15.3  c-0.5,5.2-0.5,10.4-1.6,15.5c-0.1,0.4-0.1,0.8-0.1,1.2c-0.2,1.9-0.2,2,1.8,2.3c2.3,0.3,4.7,0.6,7,0.8c3.2,0.2,6.3,0.3,9.5,0.9  c1.3,0.2,1.8-0.2,2.4-1.4c1.6-3.2,2.8-6.6,4.6-9.7c1.6-2.8,4-4.1,7-4.7c1.5-0.3,3.6,0.6,4.5-0.7c0.8-1.2,0.6-3.1,0.8-4.7  c0-0.1,0-0.2,0-0.2c0.4-6.1,0.6-12.2,1.1-18.3C80.7,12.9,80.6,8.6,83,4.5z M89.6,7.2c0-0.7,0.4-0.9,0.6-1.2c0.4-0.3,0.5-0.7,0-0.9  c-0.3-0.1-1-0.3-1,0.1c-0.1,1.4-1.1,1.5-2.1,1.6c-0.6,0.1-1.5,0.4-1.4,0.8c0.2,1.5-1.1,2.3-1.4,3.6c-0.9,4.1-0.7,8.4-1.4,12.5  c-0.8,4.7-1.3,9.5-1.9,14.3c-0.2,1.7-0.7,3.5-0.8,5.1c-0.1,2.2-1,3.6-2.6,4.5c-1.5,0.9-3,1.8-4.5,2.4c-2.6,1.1-3.6,3-4.2,5.6  c-0.3,1.5,0.6,1.1,1.9,1.6c-2.2,0.1-2.6,1.4-3.1,2.6c-0.2,0.4-0.3,0.7-0.6,1.1c-0.8,1-2.2,1.9-0.4,3.3c0.1,0.1,0,0.5,0,0.7  c0,1.1,0.1,2.3-0.3,3.4c-0.1,0.3-0.4,0.8,0.2,1c0.8,0.3,0.6,0.5,0,0.9c-0.7,0.5-1.3,1.2-2,1.7c-0.5,0.4-0.8,0.7-0.8,1.3  c-0.3,3.3,0,6.7-0.5,10c-0.2,1.7,0.4,2,2.1,1.5c5-1.7,10-3.5,14.8-5.7c0.7-0.3,1-0.7,1.1-1.4c0.3-2.6,0.7-5.2,1-7.8  c0.5-4.9,0.9-9.9,1.9-14.8c0.3-1.7,0.3-3.4,0.6-5.1c0.4-2.7,1.4-5.2,1.8-7.9c0.4-2.6-0.2-5.5,1.6-7.9c0.2-3.8,1.4-7.3,1.6-11.1  c0-1-0.2-2.1,0-3c0.6-2.3,0.7-4.6,0.8-6.9c0.1-0.8,0.2-1.5,0.6-2.2c0.8-1.6,1.2-3.2,0.8-5C90.9,6,90.6,6.9,89.6,7.2z M14.1,71.2  c-0.1,4.3,0.7,8.2,1.3,12.2c0.3,1.5,1.1,2.4,2.7,2.6c3.2,0.4,6.3,0.4,9.5,0.3c8.6-0.2,17.3,0,25.9-0.6c2.5-0.1,5.1,0,7.6-0.5  c1-0.2,1.5-0.6,1.4-1.6c-0.5-3,0-6-0.3-9c-0.2-1.8-0.8-2.4-2.7-2.7c-3.7-0.7-7.5-0.3-11.2-0.4c-1.8,0-3.6-0.5-5.4-0.2  c-2.3,0.4-4.7,0.1-7,0c-4.2-0.2-8.5-0.4-12.7-0.4C20.1,71,17.1,71.1,14.1,71.2z M19.6,57.4c4.5-1.5,8.8-2.4,13.2-2.5  c2,0,3.9-0.1,5.9-0.1c1,0,1.5-0.3,1.6-1.4c0-0.5,0.3-0.9,0.3-1.4c0.1-4.4,1-8.7,1.5-13.1c0.4-3.3,1.2-6.6,0.6-9.9  c0.9-2.2,0.3-4.5,0.7-6.8c0.4-2.3,0.2-4.7,0.2-7.1C43.5,12,43.2,9,42,6c-0.6-1.6-2.4-1.2-3-2.4c0-0.1-0.6,0-0.9,0.1  c-0.7,0.2-1.3,0.8-1.6,1.4c-0.9,1.7-1.9,3.4-2.2,5.4c-0.3,2.6-0.7,5.2-0.6,7.8c0.2,6,0.7,12,1.4,18c0.2,1.6,0.4,3.2-0.2,4.8  c-0.3,0.9-0.8,1.6-1.9,1.5c-2.4-0.1-4.9-0.2-7.3-0.2c-1.2,0-2.5-1.2-3.4,0.6c-0.1,0.2-0.1,0.2-0.3,0c-1.7-1.7-3.8-0.5-6.2-0.9  C19,47,18.5,52.2,19.6,57.4z M24.7,62.8c-3.6,0-7.2,0-10.7,0c-2.3,0-2.8,0.5-3.2,2.8c-0.2,0.9-0.1,1.8,0.2,2.6  c0.6,1.9,0.5,1.9,2.3,1.9c8.8,0,17.6-0.1,26.4,0.3c7,0.3,14-0.3,21,0.6c0.7,0.1,1.5,0,2.2,0.1c1.2,0.1,1.9-0.5,2.1-1.6  c0.2-1.4,0.3-2.7,0.5-4.1c0-0.6-0.2-1.1-1-1.1c-5-0.1-10-0.8-15-0.7c-2.9,0.1-5.9,0.2-8.8-0.2C35.3,62.7,30,62.6,24.7,62.8z M61,58  c-3.2-0.8-6.2-0.7-9.2-1c-4.4-0.4-8.7-1-13.1-1.2c-3.8-0.1-7.6,0-11.4,0.6c-1,0.2-2,0.6-3.1,0.8c-3.2,0.5-6,1.9-9,3  c-0.5,0.2-1,0.6-0.7,1.3c1.9,0,3.7,0,5.6,0c7.1-0.1,14.2,0.3,21.2,0.5c5.4,0.2,10.7,0.3,16.1,0.5c2.3,0.1,2.3,0.1,2.8-2  C60.5,59.8,60.7,59.1,61,58z M62.8,63.2c1.1,0.2,1.7-0.4,2-1.5c0.5-2,1.2-3.9,1.7-5.9c0.5-2.1,1.7-3.7,3.3-5c1-0.8,2.1-1.6,3.2-2.3  c2-1.4,2.3-2.9,1.1-4.9c-0.6-1-1.4-1.3-2.5-0.8c-1.8,0.9-3.2,2.1-4.1,4c-1.1,2.4-2.1,4.7-3.2,7.1c-1,2.4-2,4.8-2.9,7.2  C60.8,62.8,61.2,63.1,62.8,63.2z M14.7,59.2c0.8-0.3,1.3-0.4,1.7-0.6c1.7-0.6,1.8-0.8,1.6-2.7c-0.2-1.1-0.5-2.2-0.7-3.3  c-0.6-2.8-0.3-5.8-2.2-8.3c-1.2-1.6-2.2-2.6-3.6-2.1c-0.8,0.3-3.4,4.2-3.2,4.8c0.1,0.4,0.4,0.7,0.6,1.1c0.7,1,1.5,1.9,2.5,2.6  c1.8,1.2,2.6,3.1,3,5.1C14.8,56.8,14.8,57.9,14.7,59.2z M85.9,4.7c-1.4-0.1-1.8,0.6-2.3,1.3c-0.8,1.1-0.5,2.5-1,3.7  c-1.8,4.8-1.2,9.8-1.7,14.8c-0.1,0.6-0.3,1.3,0.3,1.9c0.5-0.6,0.5-1.2,0.5-1.9c0.3-4.3,0.8-8.6,1.4-12.9C83.5,9.1,84,6.8,85.9,4.7z   M75.8,47.3c2,0.5,1-2.4,2.7-2.4c0.4,0,0.3-0.7,0.4-1.1c0.1-0.2,0.1-0.3,0.1-0.5c0-0.5-0.2-1-0.8-1.1c-1-0.2-0.4,0.6-0.4,0.9  c-0.3,1.5-1.7,0.3-2.6,1C77.4,45,75.1,46.3,75.8,47.3z M91.8,3.3c-2.4-1.2-3.8-0.9-5,0.9C88.1,3,89.8,3.6,91.8,3.3z M78.8,88.1  c0.4-1,0.6-1.8-0.1-2.5c-0.1-0.1-0.4,0-0.4,0.1C77.8,86.5,78.1,87.2,78.8,88.1z"/><path d="M59.4,30.1c0.4,0.7,0.7,1.4,1.7,1.6c1.7,0.4,3.9-0.7,4.5-2.5c0.2-0.5,0.1-1.2,0.9-1.5c0,1.3-0.8,2.6,0.5,3.7  c0.6,0.5,2.6,1.5,3.4,1.3c0.4-0.1,0.5-0.3,0.6-0.6c0.1-0.3,0.2-0.8,0.4-0.8c1.6-0.3,1.6-1.7,2.1-2.9c0.3,1.4,0.2,2.8,1.1,4  c0.2,0.3,0.1,0.9-0.2,1.1c-1,0.9-1,2.2-1.8,3.7c0-1.8-0.4-3.1-1.6-3.5c-1.1-0.4-2.4-0.5-3.6-0.6c-0.2,0-0.5,0.1-0.6,0.3  c-1.2,1.2-2,0.9-3.3-0.2c-1.8-1.6-4.5-0.2-4.8,2.2c-0.1,0.5,0.1,1.2-0.6,1.6c-0.5-0.3-0.3-0.8-0.2-1.2c0.2-0.9,0.3-1.6-0.7-2.3  c-0.9-0.7-0.6-1.8-0.1-2.7C57.7,29.8,58.5,29.6,59.4,30.1L59.4,30.1z M58.3,32.8c0.5,0,0.9-0.2,1-0.8c0-0.4,0-0.8-0.5-0.9  c-0.6-0.1-0.8,0.3-0.9,0.8C57.8,32.4,57.8,32.7,58.3,32.8z M73.8,32.6c-0.1-0.3-0.3-0.6-0.7-0.6c-0.4,0-0.8,0.2-0.7,0.7  c0.1,0.3,0.4,0.5,0.8,0.5C73.5,33.1,73.7,32.9,73.8,32.6z M65.3,32.8c0.3-0.1,0.6-0.1,0.6-0.5c0-0.2-0.3-0.4-0.5-0.4  c-0.3,0-0.6,0.1-0.6,0.5C64.9,32.7,65.1,32.8,65.3,32.8z"/><path d="M55.2,32.2c-1.7,0.3-3.3,0-4.6,1.1c-0.2,0.2-0.7,0.1-0.9,0c-0.9-0.6-2-0.4-3.3-0.9c2.1-1.2,3.7-2.6,4.3-5.2  c0.5,1.3,0.4,2.4,1.2,3.4C52.8,31.7,54,31.4,55.2,32.2z"/><path d="M59.5,30.2c0-0.8,0-1.6,0-2.4c0-0.2,0.2-0.4,0.4-0.7C60.1,28.2,60.1,28.2,59.5,30.2C59.4,30.1,59.5,30.2,59.5,30.2z"/><path d="M65.4,35.1c0.5,0.6,0.1,1.1,0.2,1.6c-0.7,0-0.7-0.4-0.8-0.7C64.8,35.7,64.9,35.4,65.4,35.1z"/><path d="M51.1,34.5c-0.1,0.2-0.2,0.5-0.5,0.5c0,0-0.1-0.3-0.1-0.4c0-0.2,0-0.5,0.4-0.4C51,34.1,51,34.3,51.1,34.5z"/><path d="M82.1,46.1c0.4-1.2,1.2-1.8,2.7-1.9C83.9,45.2,83.1,45.8,82.1,46.1z"/><path d="M83.2,38.5c0.2,0.2,0.1,0.4,0.1,0.6c-0.1,0.4,0,0.8-0.6,0.8c-0.1,0-0.1-0.1-0.2-0.1c-0.2-0.6,0.3-0.8,0.5-1.2  C83,38.6,83.1,38.5,83.2,38.5z"/><path d="M66.6,79.9c0,0.4-0.2,0.8-0.5,0.9c-0.2,0.1-0.5,0-0.5-0.3c0-0.4,0.2-0.7,0.6-0.9C66.4,79.5,66.5,79.7,66.6,79.9z"/><path d="M44.4,73.2c1.1,0,2.2,0,3.3,0C46.5,73.7,45.3,73.5,44.4,73.2z"/><path d="M49.5,75.7c0.5,0,1,0,1.4,0c0,0,0,0,0,0C50.5,75.7,50,75.7,49.5,75.7C49.5,75.7,49.5,75.7,49.5,75.7z"/><path d="M21.2,77.1c-0.2,0.1-0.3,0.2-0.4,0.2c-0.1,0-0.3,0-0.4-0.1c-0.1-0.1-0.1-0.2,0.1-0.2C20.7,77,20.9,77.1,21.2,77.1z"/><path d="M33,72.8C33.2,72.8,33.1,72.8,33,72.8C33.1,72.8,33.2,72.8,33,72.8z"/><path d="M40.3,9.6c0.4,0.9,0.2,1.5,0.1,2.2C39.4,11.1,39.5,10.5,40.3,9.6z"/><path d="M24.2,46.1c-0.6-0.8-1-1.5-0.5-2.4C24.3,44.4,24.4,45.1,24.2,46.1z"/><path d="M38.2,6.8c-0.2,0.8-0.8,1.4-1.5,2C37,7.4,37,7.4,38.2,6.8z"/><path d="M40.9,12.8c-0.1,0.7-0.4,1-0.9,1.2C40.2,13.6,40,13,40.9,12.8z"/><path d="M39.4,7.4c0.3,0,0.4,0.2,0.5,0.4c0.1,0.3,0,0.7-0.3,0.8c-0.2,0.1-0.5,0.1-0.6-0.2C38.7,7.9,39.1,7.7,39.4,7.4z"/><path d="M29.1,46.1c-0.5-0.6-0.4-1.2,0-1.7C29.6,44.9,29.5,45.5,29.1,46.1z"/><path d="M51.3,67.3c-0.7,0.1-1.3,0.2-1.9-0.1C49.4,66.6,49.6,66.6,51.3,67.3z"/><path d="M52.9,66.9c0.8-1.1,1.2-0.3,1.7,0C54.1,67,53.5,67.1,52.9,66.9z"/><path d="M58.9,67c-0.7,0-1-0.1-1.4-0.1C57.8,66.8,58.2,66.7,58.9,67z"/><path d="M16.6,64.4c-0.6,0.4-1,0.4-1.4,0.1C15.5,63.9,16,64.1,16.6,64.4z"/><path d="M31.9,58.2c-0.1,0.7-0.5,0.6-0.8,0.5c-0.4,0-1,0.2-1.5-0.6C30.5,58.2,31.2,57.6,31.9,58.2z"/><path d="M22.2,60.2c0.4-0.3,0.7-0.2,1.1-0.1c-0.1,0.4-0.5,0.2-0.7,0.3C22.5,60.4,22.4,60.3,22.2,60.2z"/><path d="M54.4,59.5c-0.1,0.2-0.3,0.2-0.5,0.2c-0.2-0.1-0.4-0.2-0.3-0.5c0-0.1,0.3-0.2,0.4-0.2C54.2,59.1,54.4,59.2,54.4,59.5z"/><text x="0" y="115" fill="#000000" font-size="5px" font-weight="bold" font-family="'Helvetica Neue', Helvetica, Arial-Unicode, Arial, Sans-serif">Created by Alex Muravev</text><text x="0" y="120" fill="#000000" font-size="5px" font-weight="bold" font-family="'Helvetica Neue', Helvetica, Arial-Unicode, Arial, Sans-serif">from the Noun Project</text></svg>