<svg xmlns="http://www.w3.org/2000/svg" xmlns:xlink="http://www.w3.org/1999/xlink" xml:space="preserve" version="1.1" style="shape-rendering:geometricPrecision;text-rendering:geometricPrecision;image-rendering:optimizeQuality;" viewBox="0 0 70555.54 88194.42499999999" x="0px" y="0px" fill-rule="evenodd" clip-rule="evenodd"><defs><style type="text/css">
   
    .fil0 {fill:black;fill-rule:nonzero}
   
  </style></defs><g><path class="fil0" d="M11637.38 8437.01c-5874.17,1000.69 -9507.42,2303.95 -9507.42,3672.61 0,363.34 316.95,744.26 912.4,1133.64 699.81,457.62 1746.23,894.72 3090.31,1302.83 8441.22,2563.04 20385.11,2902.77 29145.1,2902.77 9238.06,0 17595.78,-636.9 23640.4,-1666.62 3543.41,-603.64 6270.93,-1317.41 7877.89,-2089.18 608.59,-292.29 1629.52,-885.5 1629.52,-1583.44 0,-1368.66 -3633.25,-2671.92 -9507.42,-3672.61 -13834.93,-2356.83 -33445.85,-2356.83 -47280.78,0zm-3220.01 5310.45c-237.18,-56.21 -151.71,-416.83 85.45,-360.63 3362.07,801.24 6894.95,1265.39 10331.91,1608.72 241.93,23.81 205.75,391.69 -36.22,367.89 -3450.64,-344.7 -7005.83,-811.58 -10381.14,-1615.98zm31678.47 36834.59c-52.41,136.21 -184.9,233.55 -338.99,233.55l-1137.25 0c-152,0 -282.95,-94.7 -336.77,-228 -88.42,-219.06 -37.02,-103.88 -195.2,-283.56 -113.97,-129.5 -197.66,-291.13 -238.62,-486.78 -63.94,-305.44 -126.72,-666.11 -195.35,-1060.47 -68.09,-391.22 -142.02,-815.86 -225.04,-1235.17 -26.02,-131.48 5.23,-136.05 -115.27,-126.35 -111.61,8.95 -83.65,2.96 -88.45,124.97 -207.16,5226.4 -1138.88,10375.09 -1149.55,15625.58 -0.98,479.11 -69.47,790.56 -432.98,1056.41 -242.33,177.18 -105.28,104.38 -241.46,282.06 -66.48,86.73 -171.08,142.91 -288.15,142.91l-1137.25 0c-115.59,0 -219,-54.78 -285.59,-139.63 -135.4,-172.61 -0.2,-107.91 -238.22,-289.9 -299.69,-229.1 -512.17,-575.98 -548.68,-1056.1 -379.61,-4989.85 604.65,-10454.42 821.27,-15519.64 21.25,-496.07 89.92,-387.81 -371.95,-498.79 -691.34,-166.08 -1303.5,-398.1 -1768.52,-694.52 -143.41,-91.42 -273.54,-189.08 -388.73,-292.96 -516.76,-466.09 -448.67,-355 -754.52,-12.84 -1901.45,2127.19 -4361.36,3317.74 -6746.45,4471.75 -3672.49,1776.91 -5411.78,2634.27 -7385.89,6228.24 -131.38,239.19 -297.05,424.03 -482.5,562.29 -86.43,64.44 -152,65.46 -217.86,311.25 -30.96,115.54 -177.67,167.61 -305.52,167.61l-1137.25 0c-153.01,0 -300.37,-90.78 -337.85,-230.66 -27.05,-100.96 -41.17,-209.68 -172.89,-285.73 -324.57,-278.02 -346.63,-574.29 -362.02,-967.66 -140.16,-3579.54 5182.38,-7052.25 7781.63,-8793.8 3919.78,-2626.32 5587.44,-4483.53 5513.17,-6345.52 -74.98,-1879.89 -1911,-3892.5 -4992.21,-6779.4 -3610.89,-3383.14 -9995.75,-9213.31 -11502.9,-13897.2 -193.34,-600.86 -41.01,-457.45 -681.79,-608.29 -4082.83,-961.3 -6498.24,-2197.8 -6498.24,-3582.09l-22.78 -1917.84c-5.41,-428.84 83.54,-372.93 -252.39,-592.61 -814.76,-532.8 -1248.43,-1119.46 -1248.43,-1753.54 0,-1784.9 3870.14,-3336.65 10127.31,-4402.58 13921.75,-2371.61 33602.37,-2371.61 47524.12,0 6257.17,1065.93 10127.31,2617.68 10127.31,4402.58 0,594.44 -429.3,1163.03 -1233.12,1696.4 -424.26,281.54 -332.2,157.92 -323.15,698.29l32.67 1869.3c0,1184.22 -1768.07,2260.24 -4835.16,3148.37 -669.36,193.83 -439.55,-11.42 -635,625.46 -670.78,2185.83 -2421.37,4641.84 -4525.01,7042.63 -2234.73,2550.4 -4863.11,5037.29 -7007.48,7063.97 -3081.15,2912.12 -4917.15,4942.63 -4992.21,6840.96 -74.32,1879.56 1593.79,3753.86 5514.63,6403.87 2693.74,1820.65 8247.72,5480.97 7751.69,9199.59 -6.74,248.81 -133.09,471.26 -337.78,645.77 -120.34,69.48 -130.95,149.02 -165.77,278.96 -38.64,144.19 -186.52,240.77 -343.91,240.77l-1130.88 0c-137.63,0 -287.25,-65.22 -320.68,-189.97 -60.74,-226.68 -117.34,-207.52 -206.25,-296.43 -164,-164 -350.86,-325.78 -482.13,-566.86 -1980.08,-3636.48 -3539.99,-4402.87 -7401.96,-6317.71 -2321.85,-1151.21 -4718.58,-2339.83 -6598.94,-4353.95 -672.24,-720.1 -303.38,-573.54 -844.57,-27.12 -186.93,188.75 -419.31,356.51 -688.58,503.84 -90.24,49.37 -182.76,105.7 -150.85,280.58 142.9,783.18 354.82,2067.12 275.21,2706.98 -30.14,242.27 -132.77,447.97 -281.7,613.89 -233.33,259.92 -52.46,136.18 -140.37,364.84zm-24982.99 -29230.45c1744.94,3352.19 4967.26,5836.45 8291.43,8399.17 2422.61,1867.67 4898.26,3776.42 6927.63,6104.1 352.06,403.82 248.29,398.87 330.14,-65.65 76.18,-432.2 238,-882.83 575.21,-1261.41 383.78,-430.89 436.28,-168.34 299.86,-757.64 -856.02,-3696.91 -1834.2,-8323.52 -2041.17,-11401.59 -22.59,-336.04 18.2,-261.6 -341.22,-273.43 -5079.1,-167.52 -9732.9,-539.49 -13655.2,-1063.64 -595.68,-79.59 -666.33,-217.15 -386.68,320.09zm16229.67 16224.41l0 7338.35c0,338.23 240.37,637.9 638.15,891.46 363.39,231.63 847.35,419.83 1403.7,562.91 471.37,121.24 370.51,109.33 362.18,-396.5 -20.66,-1253.5 -126.81,-2402.84 -284.15,-3486.48 -242.7,-1671.55 -594.84,-3139.94 -953.87,-4634.6 -33.17,-138 -34.32,-142.75 -173.79,-188.66 -297.88,-98.06 -557.1,-211.89 -779.46,-321.51 -183.42,-90.42 -214.25,32.43 -212.76,235.03zm-993.69 -547.29c-2076.61,-2591.53 -4768.23,-4666.66 -7396.43,-6692.82 -3548.33,-2735.53 -6982.85,-5383.71 -8737.28,-9130.74 -213.03,-455.01 -91.86,-366.66 -596.96,-445.42 -751.25,-117.18 -1500.9,-244.91 -2247.67,-388.04 -641.02,-122.84 -675.14,-263.92 -433.14,374.05 1686.93,4446.94 7673.17,9905.55 11164.49,13176.66 3219.18,3016.17 5138.55,5147.58 5223.97,7289.21 86.13,2159.55 -1680.78,4201.51 -5840.51,6988.59 -2302.16,1542.49 -7609.82,4990.49 -7452.07,8180.33 47.88,970.6 1312.02,657.81 1626.13,85.97 2055.07,-3741.38 3890.5,-4688.6 7713.23,-6538.19 2482.19,-1200.99 5048.07,-2442.7 6895.96,-4746.6 332.09,-414.05 332.4,-341.3 332.4,-858.77l0 -6652.07c0,-376.89 -30.46,-365.53 -252.12,-642.16zm7281.86 9593.28c841.61,-150.29 1498.64,-200.15 2290.96,-594.19 574.53,-285.72 937.12,-658.07 937.12,-1113.45l0 -7051.68c0,-555.4 36.85,-573.9 -287.82,-428.27 -932.7,418.36 -2416.93,706.12 -4108.54,733.95 646.92,2783.71 836.52,5473.53 796.26,8134.31 -6.41,425.38 -72.45,369.29 372.02,319.33zm541.3 840.87c77.1,396.44 146.94,797.63 211.63,1169.36 69.47,399.15 133,764.17 189.58,1034.4 101.42,484.55 1147.81,338.29 1208.95,-153.11 63.44,-509.85 -107.5,-1593.42 -240.88,-2339.29 -16.42,-91.82 -30.15,-185 -190.18,-137.55 -330.54,98.01 -686.87,177.88 -1059.77,239.76 -185.5,30.77 -156.32,-3.73 -119.33,186.43zm-4846.12 -24927.58c348.41,3475.49 1118.7,6987.89 1921.84,10420.6 145.95,623.82 138.4,545.12 184.25,-42.73l806.71 -10341.49c35.97,-461.17 98.82,-378.17 -367.93,-376.43 -725.82,2.73 -1452.6,-0.97 -2178.37,-7.01 -453.64,-3.79 -410.32,-90.34 -366.5,347.06zm2267.76 11890.08c75.18,318.38 150.15,635.9 225.17,955.04 92.49,393.56 -12.74,319.96 368.44,319.96 1244.59,0 2536.59,-110.41 3733.21,-473.41 572.51,-173.66 854.64,-371.05 -55.24,-673.82 -1046.84,-348.35 -2858.28,-447.12 -3677.97,-447.12 -109.43,0 -210.95,0.63 -304.66,1.85 -411.53,5.38 -381.41,-74.15 -288.95,317.5zm577.87 2472c67.72,295.43 135.8,595.34 204.38,901.48 1819.21,-18.67 3391.51,-306.17 4219.2,-723.92 351.82,-177.6 273.02,-195.86 265.58,-596.4 -2.83,-152.49 -9.5,-314.76 -23.62,-476.19 -48.95,-559.22 -15.48,-397.91 -422.63,-205.56 -1078.89,509.6 -2846.82,630.77 -4011.55,643.94 -435.3,4.86 -354.14,-78.98 -231.36,456.65zm-3872.12 85.21c-68.66,-284.88 -141.5,-587.37 -217.56,-904.71 -57.27,-238.98 -2.15,-211.63 -213.16,-308.43 -71.26,-32.68 -136.18,-66.15 -195.08,-100.56 -208.54,-121.79 -176.36,-192.73 -247.9,101.69 -60.65,249.66 -81.62,504.67 -87.51,733.77 -6.85,265.89 -22.28,250.49 212.48,405.08 154.69,101.85 347.54,197.97 573.3,286.77 330.46,129.97 250.9,99.6 175.43,-213.61zm-2063.56 -14622.15c280.32,4073.43 1936.67,10944.73 2824.22,14626.68 431.13,1788.91 870.44,3570.72 1135.22,5394.36 227.81,1569.08 350.93,3273.36 270.18,5224.89 -212.72,5141.66 -1216.42,10318.49 -823.76,15480.17 67.73,890.82 1693.52,1021.84 1694.96,68.11 15.22,-8455.73 2387.6,-16655.4 343.14,-25083.14l-1.45 -7.24c-1151.72,-5156.72 -2580.74,-10265.79 -3098.17,-15541.27 -41.02,-418.31 33.42,-346.4 -391.61,-353.31 -522.64,-8.53 -1041.68,-19.19 -1556.74,-31.93 -372.87,-9.22 -418.82,-109.16 -395.99,222.68zm6747.74 186.45l-809.49 10377.26c-45.29,580.51 -140.86,432.14 436.29,445.02 296.54,6.62 585.61,20.14 864.63,39.9 493.62,34.95 392.81,106.08 438.03,-412.64l895.74 -10275.31c55.19,-633.11 168.77,-571.67 -468.73,-564.5 -263.58,2.98 -528.06,12.9 -793.38,24.74 -534.54,23.86 -525.14,-120.86 -563.09,365.53zm2576.97 87.75l-906.86 10402.8c-52.99,607.83 -130.92,465.07 454.8,579.12 685.03,133.39 1681.36,376.35 2091.3,1024.75 151.18,239.09 246.01,528.88 305.23,829.55 124.68,633.03 -45.84,705.4 429.72,157.36 2024.16,-2332.53 4486.04,-4247.19 6895.37,-6120.89 3323.54,-2584.66 6545.03,-5090.36 8290.14,-8468.02 229.15,-443.48 186.76,-336.61 -302.41,-261.07 -4564.03,705.04 -10319.96,1189.5 -16687.89,1354.39 -610.84,15.81 -517.29,-95.81 -569.4,502.01zm2039.81 14897.32l0 6607.99c0,534.96 -8.47,455.55 335.87,882.27 1853.35,2296.69 4429.37,3574.13 6916.76,4807.44 4010.02,1988.25 5662.41,2842.43 7723.49,6627.65 317.28,582.66 1546.37,849.17 1618.9,17.38 283.2,-3246.9 -5101.59,-6776.99 -7446.28,-8361.72 -4158.67,-2810.75 -5925.14,-4869.77 -5839.06,-7046.92 85.34,-2158.38 2004.73,-4308.15 5223.96,-7350.78 2135,-2017.83 4751.78,-4493.71 6958.22,-7011.84 1935.31,-2208.68 3558.35,-4450.56 4262.62,-6440.04 170.55,-481.84 180.69,-398.74 -290,-288.92 -781.21,182.32 -1622.65,354.65 -2519.24,516.07 -502.09,90.39 -360.6,49.46 -584.51,518.71 -1772.44,3714.28 -5168.84,6355.6 -8676.2,9083.21 -2677.14,2081.97 -5420.01,4215.23 -7510.23,6895.3 -207.9,266.58 -174.3,206.49 -174.3,544.2zm20918.96 -26738.97c-238.11,-48.56 -164.3,-410.65 73.87,-362.08 899,184.15 1548.65,387.85 1980.47,602.38 1882.14,935.03 -172.66,1906.29 -1213.45,2244.31 -1841.85,598.18 -4483.3,969.6 -5138.79,1049.54 -241.97,28.57 -285.38,-339.33 -43.45,-367.88 647.96,-79.03 3257.69,-445.72 5067.83,-1033.61 644,-209.16 2581.22,-856.73 1164.19,-1560.7 -405.41,-201.41 -1025.12,-394.66 -1890.67,-571.96zm-58886.52 4042.32l20.79 1538.31c0,1296.98 3462.72,2535.37 9061.17,3489.08 5768.89,982.75 13745.71,1590.6 22563.03,1590.6 8817.32,0 16794.14,-607.85 22563.03,-1590.6 1355.64,-230.94 9095.95,-1505.51 9061.72,-3537.11l-25.93 -1547.98c-7.57,-453.12 68.04,-412.09 -324.7,-241.22 -1752.61,762.55 -4321.84,1432.37 -7512.05,1975.82 -6086.71,1036.9 -14488.32,1678.23 -23762.07,1678.23 -8848.02,0 -20831.58,-348.2 -29359.45,-2937.54 -716.88,-217.67 -1355.62,-444.68 -1909.59,-679.87 -460.35,-195.43 -382.53,-259.78 -375.95,262.28z"/></g><text x="0" y="70570.54" fill="#000000" font-size="5px" font-weight="bold" font-family="'Helvetica Neue', Helvetica, Arial-Unicode, Arial, Sans-serif">Created by Oleksandr Panasovskyi</text><text x="0" y="70575.54" fill="#000000" font-size="5px" font-weight="bold" font-family="'Helvetica Neue', Helvetica, Arial-Unicode, Arial, Sans-serif">from the Noun Project</text></svg>