<svg xmlns="http://www.w3.org/2000/svg" xmlns:xlink="http://www.w3.org/1999/xlink" xml:space="preserve" version="1.1" style="shape-rendering:geometricPrecision;text-rendering:geometricPrecision;image-rendering:optimizeQuality;" viewBox="0 0 70555.54 88194.42499999999" x="0px" y="0px" fill-rule="evenodd" clip-rule="evenodd"><defs><style type="text/css">
   
    .fil0 {fill:black;fill-rule:nonzero}
   
  </style></defs><g><path class="fil0" d="M3876.19 13817.84c-128.57,-1613.48 -210.97,-2953.14 -141.59,-4083.44 230.74,-3758.51 2447.81,-4839.58 5929.59,-5635.37 4754.17,-1086.58 11188.1,-1476.48 16020.96,-1146.15 4956.96,338.78 7998.8,1534.39 11565.98,4877.12 7127.27,6678.76 8660.82,12199.67 18969.28,16098.52 5841.18,2209.25 11536.95,2716.04 11531.39,10552.22l-7 9869.92c-2.12,3015.08 -1715.58,3521 -4263.34,4193.4 -7068.75,1865.68 -14323.5,3242.11 -21522.22,4505.74l9945.11 8874.07c2376.96,2121.03 -1191.39,2616.71 -2470.96,1577.01l-11914.98 -9681.57c-543.2,93.29 -1086.16,186 -1628.25,285.75l1003.27 12972.13c186.38,2408.63 -3217.78,2176.85 -3357.47,41.83l-750.36 -11471.59 -2121.91 4595.18c-808,1616 -3756.25,1027.63 -2999.62,-669.35l2224.03 -5027.65c-265.93,-39.4 -546.55,-87.6 -846,-145.51l-14538.54 10444.64c-2062.74,1481.88 -4877.94,606.74 -2109.39,-1609.91l12316.55 -9861.33 -14138.31 -3453.33c-3118.77,-797 -3212.44,-2022.28 -3511.46,-4657.77l-3183.38 -31437.67 -1.38 -6.89zm37198.11 39386.79c-876.14,152.8 -1754.4,304.65 -2635.42,456.36l11438.23 9294.19c561.91,592.17 2831.59,644.86 1539.39,-522.15l-10342.2 -9228.4zm-5880.93 1030.55c-589.46,111.09 -1180.54,225.09 -1774.02,312.42l822.98 12581.95c224.63,1212.48 2058.85,1429.27 1944.9,-44.01l-993.86 -12850.36zm-2725.91 421.66c-585.7,44.87 -1173.75,43.52 -1848.65,-21.22l-2310.47 5221.23c-222.82,505.79 1175.36,1090.78 1719.95,82.19l2439.17 -5282.2zm-4355.84 -453.79c-845.59,-192.83 -1695.11,-412.91 -2538.13,-618.82l-12680.55 10152.78c-1875.98,1435.05 -2.62,1498.19 1199.96,537.23l14018.72 -10071.19zm3254.21 -229.67l192.25 -11749.39c95.97,-5865.63 -3000.61,-7515.07 -9293.36,-10866.99 -5422.59,-2888.39 -10778.45,-5776.98 -14615.88,-10761.86 -1267.07,-1645.94 -2247.99,-3396.68 -2911.49,-5261.68l3022.04 29846.85c346.53,2646.24 338.06,3227.2 2998.67,4061.32l14253.48 3481.45c2053.16,501.49 4266.48,1184.43 6354.29,1250.3zm28012.33 -19398.02c234.17,-229.69 387.74,-12.37 323.84,137.8 -600.91,1402.83 -3316.35,1737.13 -4640.32,1896.08l-12330.99 1455.69c-1540.21,181.76 -3014.75,245.08 -4534.43,-145.34 -223.84,-57.09 -137.04,-397.46 86.82,-340.36 1486.95,382 2922.99,310.79 4428.94,133l12308.32 -1453.01c1148.19,-137.85 3834.34,-461.8 4357.82,-1683.86zm-23823.91 -20084.75c-429.56,-172.16 -167.81,-825.37 261.82,-653.18 5006.27,2024.14 8027.35,6956.66 12884.34,9853.83 2721.09,1623.12 5678.95,2715.63 8655.51,3761.39 5449.49,1914.66 6532.63,2962.13 6690.83,7276.22 16.89,460.71 23.24,958.7 23.23,1498.96l-0.05 3213.06 33.42 8202.86c1945.75,-565.6 2937.08,-1054.56 2938.65,-3293.09l7 -9869.92c5.21,-7324.44 -5624.1,-7831.27 -11076.63,-9893.52 -10520.86,-3979.18 -11966.17,-9462.66 -19203.54,-16244.6 -3447.44,-3230.51 -6338.64,-4359.45 -11130.54,-4686.94 -4759.09,-325.28 -11134.47,59.43 -15817,1129.61 -3150.89,720.17 -5175.06,1572.72 -5384.28,4989.96 77.51,3880.04 1406.54,7321.68 3768.55,10389.95 3763.49,4888.83 9068.47,7737.19 14389.88,10571.68 6546.83,3487.25 9768.44,5203.29 9665.44,11498.13l-192.03 11735.5c1038.69,-41.4 2075.86,-253.98 3095.46,-446.01l51.08 -11689.37c14.75,-3376.2 -529.87,-5650.69 -2205.8,-7606.96 -1297.18,-1514.17 -3279.6,-2859.82 -6203.65,-4388.46 -3531.8,-1846.36 -7483.83,-3249.55 -9931.36,-6592.25 -1658.4,-2264.95 -2337.72,-5170.35 -1168.4,-9047.36 132.3,-444.07 807.56,-242.94 675.24,201.2 -1095.49,3632.2 -472.52,6335.75 1060.9,8430 2381.22,3252.13 6447.19,4671.62 9900.44,6495.9 1572.85,-433.94 5574.57,-729.45 10373.11,-729.37 5211.83,0.08 11379.88,344.84 16409.21,1233.74 3873.12,684.55 7092.34,1705.7 8744.82,3162.44 398.62,351.4 387.73,462.16 243.48,-186.33 -624.05,-2805.56 -2451.79,-3448.05 -5988.96,-4690.83 -3025.56,-1062.98 -6018.14,-2171.55 -8785.05,-3822.01 -4736.12,-2825.06 -8018.27,-7876.9 -12785.12,-9804.23zm27118.31 19266.39c-1372.54,-1473.28 -4642.43,-2519.27 -8668.74,-3230.91 -4995.58,-882.93 -11117.25,-1225.39 -16287.95,-1225.46 -4092.84,-0.06 -7579.24,211.87 -9428,538.4 2384.53,1325.88 4077.68,2555.75 5256.4,3931.64 1803.27,2104.91 2389.44,4513.88 2373.92,8067.22l-13.94 3191.36c1598.22,564.47 3195.77,447.09 4840.21,180.58 5816.71,-942.75 11633.83,-1901.3 17452.32,-2828.25 2092.92,-333.47 3410.59,-669.94 4193.99,-1130.46 732.03,-430.31 976.24,-992.12 976.36,-1808.17 -4.48,-1098.18 0.04,-2196.19 0.05,-3294.5 0.02,-1039.14 63.14,-1578.09 -694.62,-2391.45zm728.77 14080.84l-23.08 -5665.6c-4.4,-1079.27 105.07,-748.01 -631.94,-314.78 -868.93,510.79 -2258.76,872.85 -4433.6,1220.03 -5818.9,928.89 -11639.62,1883.84 -17458.01,2826.86 -1670.72,270.77 -3317.74,387.13 -4953.7,-133.14l-33.3 7622.2c1918.43,-325.44 3968.6,-716.98 5941.61,-1068.41 7240.61,-1289.68 14392.38,-2573.68 21592.02,-4487.16z"/></g><text x="0" y="70570.54" fill="#000000" font-size="5px" font-weight="bold" font-family="'Helvetica Neue', Helvetica, Arial-Unicode, Arial, Sans-serif">Created by Oleksandr Panasovskyi</text><text x="0" y="70575.54" fill="#000000" font-size="5px" font-weight="bold" font-family="'Helvetica Neue', Helvetica, Arial-Unicode, Arial, Sans-serif">from the Noun Project</text></svg>