<svg xmlns="http://www.w3.org/2000/svg" xmlns:xlink="http://www.w3.org/1999/xlink" version="1.1" x="0px" y="0px" viewBox="0 0 100 125" style="enable-background:new 0 0 100 100;" xml:space="preserve"><path d="M9.4437866,30.6820679c0.4364624,9.0176392,2.4472656,18.260498,7.0164185,22.5483398l-1.8366699,29.8584595  c-0.0263672,0.4243164,0.2182617,0.8183594,0.6098633,0.9833984c0.3427734,0.144043,1.7602539,0.7060547,3.0444336,0.7055664  c0.4125977,0,0.8115234-0.0581055,1.1567383-0.206543c0.4946289-0.2128906,0.8525391-0.5830078,1.034668-1.0698242  c0.4983521-1.3270874,3.6223755-19.3505249,4.668457-25.4306641c3.3607178,1.4451294,7.0500488,2.7681274,9.9505005,3.4841309  l1.7614136,34.1716309c0.0195312,0.3833008,0.2568359,0.7211914,0.6103516,0.8701172  c0.3427734,0.1445312,1.7602539,0.706543,3.0444336,0.706543c0.4125977,0,0.8115234-0.0581055,1.15625-0.206543  c0.4951172-0.2133789,0.8535156-0.5834961,1.0361328-1.0703125c0.5333252-1.4230347,1.4960938-25.7602539,1.8165894-34.2332153  c2.0437622-0.1516113,4.4783936-0.3577881,7.1283569-0.6153564l-0.5860596,16.211853  c-0.0146484,0.4150391,0.2285156,0.7963867,0.6113281,0.9580078c0.3427734,0.144043,1.7602539,0.7060547,3.0444336,0.7055664  c0.4125977,0,0.8115234-0.0581055,1.1567383-0.206543c0.4946289-0.2133789,0.8525391-0.5830078,1.034668-1.0698242  c0.5053711-1.3458252,2.3770752-13.5522461,2.9751587-17.5048218c1.1238403-0.1385498,2.2536621-0.2827148,3.383728-0.4365845  c5.555542-0.7561035,9.8401489-1.5245361,13.1550903-2.2681885c2.0083008,8.3232422,7.7234497,31.8291626,8.5250854,33.1143799  c0.2749023,0.440918,0.6992188,0.7329102,1.2260742,0.8442383c0.1567383,0.0327148,0.3198242,0.0478516,0.4868164,0.0478516  c1.4418945,0,3.1689453-1.1201172,3.5327148-1.3676758c0.3173828-0.2158203,0.4829102-0.5942383,0.4267578-0.9736328  l-5.131897-34.5612793c1.8217773-0.9373779,2.2990112-1.6856079,2.5601196-2.0998535  c3.2456055-5.1479492,2.6259766-21.9516602-0.2416992-29.4560547c-0.8613281-2.2548828-1.8725586-3.5200195-3.0913086-3.8681641  c-2.3857422-0.6826172-5.6938477,0.2729492-9.5224609,1.3793945c-4.0498047,1.1708984-8.6416016,2.4975586-12.0805664,1.6367188  c-2.0200195-0.5048828-2.8022461-2.6899414-3.9111328-6.2138672c-1.6196289-5.1474609-3.8383789-12.1972656-14.152832-12.8847656  c-18.0493164-1.2050781-30.675293-0.4140625-33.6201172,7.3510742C9.991394,14.2872925,9.0892334,22.0596924,9.4204102,30.1102295  C9.3746948,30.3049927,9.3762207,30.5006104,9.4437866,30.6820679z M18.6523438,82.7299805  c-0.2402344,0.1420898-1.1186523,0.0136719-1.9868164-0.2617188l1.7095337-27.7941284  c1.2756348,0.7947998,2.9768677,1.6807861,4.8771362,2.5579834C21.5384521,67.2079468,18.9769287,81.7223511,18.6523438,82.7299805z   M40.8295898,95.277832c-0.3056641,0.1083984-1.1748047-0.0336914-2.0166016-0.3100586l-1.7008057-32.9941406  c0.5841064,0.0911255,1.1061401,0.1401367,1.550415,0.1401367c0.6542358,0,2.0124512-0.0621948,3.8435669-0.1812134  C42.0220337,74.6958008,41.208252,93.2965698,40.8295898,95.277832z M55.0859375,77.0053711  c-0.2402344,0.1445312-1.1308594,0.012207-2.0053711-0.2675781l0.5700684-15.7615356  c1.3535767-0.1397095,2.7480469-0.2923584,4.1671753-0.4573364C56.8425293,66.9359741,55.3731079,76.1639404,55.0859375,77.0053711z   M88.5395508,88.8764648c-0.7705078,0.4370117-1.5883789,0.75-1.9150391,0.7021484  c-0.7659912-1.8735352-5.2647095-20.0540771-8.2617188-32.4734497c2.2211914-0.5561523,3.9210205-1.0933838,5.2219238-1.5953369  L88.5395508,88.8764648z M58.8242798,58.399353c-0.0281982,0.005127-0.0575562,0.0026245-0.0849609,0.0101318  c-2.0560913,0.2477417-4.072876,0.4696655-5.9993286,0.6654053c-0.0075073-0.0004272-0.0136719-0.0047607-0.0212402-0.0050659  c-0.0302734-0.0003052-0.057251,0.0136719-0.0870972,0.0160522c-6.6132202,0.6697998-12.0956421,1.0278931-13.9690552,1.0278931  c-0.5968018,0-1.3766479-0.1109009-2.2768555-0.3034058c-0.0178833-0.0067139-0.0369263-0.0060425-0.0551147-0.0117188  c-5.4949341-1.1893921-15.5482178-5.4805908-18.1958618-7.7332153c-4.4055786-3.7479858-6.3126221-12.7218628-6.7151489-21.50177  c0.6029053-0.8148804,2.4317627-2.0731201,4.7371216-2.6002808c1.4526367-0.3320312,3.5273438-0.4638672,5.1601562,0.7880859  c1.6899414,1.2958984,4.4165039,7.8261719,6.8217773,13.5883789c3.6118164,8.6508789,5.9619141,13.9741211,8.1420898,14.9511719  c0.1328125,0.0595703,0.2719727,0.0878906,0.4086914,0.0878906c0.3818359-0.0004883,0.746582-0.2202148,0.9130859-0.5913086  c0.2255859-0.5043945,0.0004883-1.0957031-0.503418-1.3217773c-1.5125122-0.6776123-4.3956909-7.3964233-6.6619263-12.8128052  c4.2293091-0.3543091,23.3344727-1.8964233,29.1057739-1.3258667l1.0786133,0.1040039  c6.7705078,0.6442261,24.5787354,2.3450928,25.5327148,10.3071899  C83.7114258,54.6755981,70.7180176,56.9629517,58.8242798,58.399353z M13.2924805,11.2246094  c1.940918-5.1176758,9.9921875-6.5229492,19.980957-6.5229492c3.6845703,0,7.6342773,0.1914062,11.6362305,0.4580078  c8.949707,0.5966797,10.7709961,6.3842773,12.3779297,11.4902344c1.0927734,3.472168,2.125,6.7514648,5.3334961,7.5537109  c3.9638672,0.9897461,8.8291016-0.4145508,13.1210938-1.6557617c3.3852539-0.9785156,6.5859375-1.9023438,8.4174805-1.3779297  c0.1992188,0.0571289,0.9165039,0.4169922,1.7729492,2.6591797c2.2345581,5.8474731,3.0548096,18.7056274,1.4221802,25.1029053  c-3.7938232-7.3200684-19.4121094-8.8130493-26.5437622-9.4920654l-1.0708008-0.1030273  c-6.4127197-0.6348267-27.6636963,1.1651001-30.1130981,1.3773193c-2.7127686-6.4918213-5.0687866-11.9979858-7.0934448-13.5496826  c-2.2509766-1.7265625-4.953125-1.5791016-6.8227539-1.1508789c-1.6044922,0.3667603-3.1710815,1.088562-4.3666382,1.9356079  C11.2543335,20.9568481,12.0731812,14.4384766,13.2924805,11.2246094z M58.1660156,36.4594727  c-1.2900391-2.4355469-0.0097656-8.7441406,0.2597656-9.9838867c0.1171875-0.5400391,0.6489258-0.8833008,1.1894531-0.7646484  c0.5395508,0.1171875,0.8818359,0.6499023,0.7646484,1.1894531c-0.5634766,2.5957031-1.1831055,7.2319336-0.4462891,8.6235352  c0.2583008,0.487793,0.0722656,1.0932617-0.4160156,1.3515625c-0.1489258,0.0791016-0.309082,0.1162109-0.4667969,0.1162109  C58.6923828,36.9916992,58.3457031,36.7988281,58.1660156,36.4594727z"/><text x="0" y="115" fill="#000000" font-size="5px" font-weight="bold" font-family="'Helvetica Neue', Helvetica, Arial-Unicode, Arial, Sans-serif">Created by Path Lord</text><text x="0" y="120" fill="#000000" font-size="5px" font-weight="bold" font-family="'Helvetica Neue', Helvetica, Arial-Unicode, Arial, Sans-serif">from the Noun Project</text></svg>