<svg xmlns="http://www.w3.org/2000/svg" viewBox="0 0 100 125" x="0px" y="0px"><title>Sofa</title><path d="M88.78418,51.6123c-.274-.30151-.58575-.63134-.85223-.88195a16.10426,16.10426,0,0,1-1.82648.92273C87.16125,51.64655,88.11035,51.62891,88.78418,51.6123Z" /><path d="M12.06812,50.73035c-.26648.25061-.57831.58044-.8523.88195.67383.01661,1.62293.03425,2.67871.04078A16.09824,16.09824,0,0,1,12.06812,50.73035Z" /><path d="M85.31934,52.65625c-1.23829,0-2.57129-.01855-3.78614-.07617-3.44238-.15918-13.64648-.46094-17.79-.31446-3.55188.12372-11.21264-.00317-13.24316-.03955V56.662a46.51885,46.51885,0,0,0,5.05273.28723c4.13868-.09082,16.69825-.04688,19.74415,0,2.63079.04065,11.01324.0086,12.97558.00134q.32273-1.891.94464-4.34936C88.41071,52.62354,86.9566,52.65625,85.31934,52.65625Z" /><path d="M55.30469,47.18848a26.89226,26.89226,0,0,0-4.623.34961c-.06775.00982-.121.01715-.18164.02575v3.66248c2.00012.03692,9.66718.16333,13.208.0393,4.08887-.14062,13.95215.13379,17.87207.31641.98443.04578,2.04754.0661,3.07452.072l-.00616-.01147A5.63953,5.63953,0,0,0,83.33008,49.46a6.64239,6.64239,0,0,0-.98047-.76556c-.00415.0205-.01007.05389-.01367.07025a.70309.70309,0,0,1-.31739.44922.92844.92844,0,0,1-.502.125,7.02972,7.02972,0,0,1-1.501-.293,22.47747,22.47747,0,0,0-4.46484-.76563c-2.41211-.13965-4.41894-.12988-5.61133-.124a7.32129,7.32129,0,0,1-1.332-.03516.57172.57172,0,0,1-.3418-.27148c-.08966-.16992-.10668-.34979.03742-.85877C65.77319,47.05188,57.283,47.2486,55.30469,47.18848Z" /><path d="M24.70312,56.94922c3.04688-.04785,15.6045-.0918,19.74415,0A44.59562,44.59562,0,0,0,49.5,56.66211v-4.436c-2.03033.03638-9.69043.16327-13.24316.03955-4.14161-.14648-14.34864.15528-17.79.31446-1.21485.05762-2.54883.07617-3.78614.07617-1.63726,0-3.09137-.03271-3.89776-.05505q.62036,2.46019.94476,4.34991C13.69006,56.95947,22.07153,56.99072,24.70312,56.94922Z" /><path d="M11.20673,50.17529c-.117-.08136-.23438-.15759-.35028-.24463a16.34781,16.34781,0,0,1-1.84607-1.631A17.67939,17.67939,0,0,1,10.3429,51.0874C10.60425,50.79694,10.91223,50.46606,11.20673,50.17529Z" /><path d="M6.40863,44.71c-.02338-.0506-.05377-.10327-.07562-.15338a13.84718,13.84718,0,0,1-.60791-1.71783l-.90363.49292A8.02562,8.02562,0,0,1,6.40863,44.71Z" /><path d="M78.65039,36.61719a32.21828,32.21828,0,0,1-4.18945-.92188,16.90135,16.90135,0,0,0-1.79-.42578c-.043.21485-.14063.83106-.22754,1.38281a28.53858,28.53858,0,0,1-.90527,4.21094c-.36621,1.16016-.88282,2.54395-1.33887,3.76465-.332.89062-.72559,1.94531-.90527,2.53125.21484.001.41113-.001.64062-.00293.26758-.001.57617-.002.91992-.002,1.207,0,2.85352.01758,4.75489.12793a23.69732,23.69732,0,0,1,4.65332.79492,11.21158,11.21158,0,0,0,1.13867.25488c.01855-.10156.041-.22558.0664-.37012a26.68542,26.68542,0,0,1,1.75782-6.459A17.87934,17.87934,0,0,0,84.874,36.917,51.59947,51.59947,0,0,1,78.65039,36.61719Z" /><path d="M18.53223,47.96191c.02539.14454.04785.26856.0664.37012a11.21158,11.21158,0,0,0,1.13867-.25488,23.69732,23.69732,0,0,1,4.65332-.79492c2.44336-.14161,4.46973-.12793,5.67481-.126.22852.001.44727.001.64062.002-.17968-.585-.57324-1.63965-.90527-2.53027-.45605-1.2207-.97266-2.60449-1.33887-3.76465a28.53858,28.53858,0,0,1-.90527-4.21094c-.083-.52246-.17383-1.10156-.25293-1.37988a17.98642,17.98642,0,0,0-1.76465.42285,32.21828,32.21828,0,0,1-4.18945.92188,51.84639,51.84639,0,0,1-6.22363.2998,17.87934,17.87934,0,0,0,1.64843,4.58594A26.68542,26.68542,0,0,1,18.53223,47.96191Z" /><path d="M15.35156,51.64258l-.00616.01147c1.027-.00592,2.09009-.02624,3.07452-.072,3.91895-.18262,13.77539-.459,17.87207-.31641,3.53766.12317,11.20728-.00329,13.208-.03961V47.56384c-.06061-.0086-.11389-.01593-.18164-.02575a26.89644,26.89644,0,0,0-4.623-.34961c-1.97668.05755-10.4685-.13794-12.99847-.19806.14429.50934.12726.68921.03754.85919a.57172.57172,0,0,1-.3418.27148,7.33516,7.33516,0,0,1-1.332.03516c-1.19239-.00391-3.19922-.01563-5.61133.124a22.47747,22.47747,0,0,0-4.46484.76563,7.02972,7.02972,0,0,1-1.501.293.92844.92844,0,0,1-.502-.125.70309.70309,0,0,1-.31739-.44922c-.0036-.01636-.00952-.04981-.01367-.07031a6.6457,6.6457,0,0,0-.98047.76562A5.63953,5.63953,0,0,0,15.35156,51.64258Z" /><path d="M88.11737,57.9516c-1.3559.00555-4.88788.0191-8.02167.0191-1.98925,0-3.81445-.00586-4.81445-.02148-3.042-.04785-15.57715-.0918-19.707,0a48.74557,48.74557,0,0,1-5.5741-.33576,48.08537,48.08537,0,0,1-5.57434.33576c-4.12988-.09082-16.66406-.04785-19.707,0-1,.01562-2.8252.02148-4.81445.02148-3.13379,0-6.66584-.01355-8.02167-.0191.31842,2.30157.24567,3.88946-.21436,4.85309H88.33173C87.8717,61.84106,87.799,60.25317,88.11737,57.9516Z" /><polygon points="87.36 68.708 87.917 68.708 87.907 63.805 86.391 63.805 87.36 68.708" /><path d="M10.34863,62.85742c.68457-.3418,1.50489-2.18066-.69726-10.65039-.78418-3.01953-3.79981-7.19238-5.47754-8.10351a1.07312,1.07312,0,0,0-.45606-.15528.16889.16889,0,0,0-.05566.00781,1.43419,1.43419,0,0,0-.88867.75879c-.8125,1.63184.30859,5.51465,1.64062,9.46582,1.7334,5.1377,3.97852,8.07715,5.332,8.63477A.72561.72561,0,0,0,10.34863,62.85742Z" /><polygon points="12.083 68.708 12.64 68.708 13.609 63.805 12.093 63.805 12.083 68.708" /><path d="M96.33789,43.95605a.16889.16889,0,0,0-.05566-.00781,1.07312,1.07312,0,0,0-.45606.15528c-1.67773.91113-4.69336,5.084-5.47754,8.10351-2.20215,8.46973-1.38183,10.30859-.69726,10.65039a.73321.73321,0,0,0,.60254-.042c1.35351-.55762,3.59863-3.49707,5.332-8.63477,1.332-3.95117,2.45312-7.834,1.64062-9.46582A1.43419,1.43419,0,0,0,96.33789,43.95605Z" /><path d="M89.14355,49.93066c-.1159.087-.23333.16327-.35028.24463.2945.29077.60248.62165.86383.91211a17.6789,17.6789,0,0,1,1.33252-2.78772A16.35317,16.35317,0,0,1,89.14355,49.93066Z" /><path d="M85.23462,39.32837a23.309,23.309,0,0,1-1.12036,2.63354,23.71053,23.71053,0,0,0-1.5755,5.68616,6.84421,6.84421,0,0,1,1.471,1.07947,6.2115,6.2115,0,0,1,1.41113,2.126,14.31186,14.31186,0,0,0,3.123-1.72364,14.11223,14.11223,0,0,0,4.207-4.97363,15.346,15.346,0,0,0,.73144-2.19141,12.71965,12.71965,0,0,1,.627-1.89062c-.0625-.00195-.126-.00293-.18458-.00391a7.37334,7.37334,0,0,1-3.43164-.67187,12.26565,12.26565,0,0,1-2.80078-2.2959A24.83612,24.83612,0,0,0,85.23462,39.32837Z" /><path d="M95.17853,43.33173l-.90363-.49292a13.84718,13.84718,0,0,1-.60791,1.71783c-.02185.05011-.05224.10278-.07562.15338A8.02562,8.02562,0,0,1,95.17853,43.33173Z" /><path d="M13.25275,36.58441c.28088.23273.61248.51343.95215.813a2.20964,2.20964,0,0,1-.01838-1.08978.624.624,0,0,1,.38086-.36914.48963.48963,0,0,1,.169-.02637,54.00752,54.00752,0,0,0,6.48633-.28711,31.43764,31.43764,0,0,0,4.05664-.89551c1.76758-.47461,2.29687-.60351,2.65918-.30957.30468.24219.38769.69238.60547,2.07715A27.829,27.829,0,0,0,29.415,40.5625c.3584,1.13477.87012,2.50586,1.32226,3.71582.26459.70868.46973,1.26367.62653,1.70428,1.91113.04889,11.262.278,13.30023.20588a27.8432,27.8432,0,0,1,4.7959.36035l.04.00586c-.00293-1.66211-.02148-6.542-.14453-9.208-.03418-.73047-.0459-1.46191-.05762-2.16016-.02539-1.60058-.06445-4.01953-.57812-4.06152-.5918-.04785-8.09961-.02344-15.3584.002-7.75781.02637-15.78028.05078-17.50781.00391a2.95731,2.95731,0,0,0-2.34766.60254.9204.9204,0,0,0-.25684.68066Z" /><path d="M55.33594,46.18848c2.03833.07214,11.38928-.157,13.30029-.20588.1568-.44061.36188-.9956.62647-1.70428.45214-1.21.96386-2.581,1.32226-3.71582a27.829,27.829,0,0,0,.87109-4.06543c.21778-1.38477.30079-1.835.60547-2.07812.36426-.292.88965-.165,2.65918.31054a31.43764,31.43764,0,0,0,4.05664.89551,53.783,53.783,0,0,0,6.48633.28711.55953.55953,0,0,1,.16895.02637.624.624,0,0,1,.38086.36914,2.20964,2.20964,0,0,1-.01838,1.08978c.3396-.2995.67109-.58008.952-.81281V32.47754a.95137.95137,0,0,0-.25293-.74414,3.03806,3.03806,0,0,0-2.34766-.60254c-1.72558.04883-9.74707.02148-17.50781-.00391-7.25879-.02539-14.76562-.04883-15.35937-.002-.5127.042-.55176,2.46094-.57715,4.06152-.01172.69825-.02344,1.42969-.05762,2.16016-.12305,2.666-.1416,7.5459-.14453,9.208l.04-.00586A28.56184,28.56184,0,0,1,55.33594,46.18848Z" /><path d="M7.249,44.15625a13.93379,13.93379,0,0,0,7.3291,6.69727,6.23991,6.23991,0,0,1,1.41211-2.126,6.84421,6.84421,0,0,1,1.471-1.07947,23.71053,23.71053,0,0,0-1.5755-5.68616,23.3049,23.3049,0,0,1-1.12042-2.6336,24.71414,24.71414,0,0,0-2.4577-2.22577,12.26565,12.26565,0,0,1-2.80078,2.2959,7.37334,7.37334,0,0,1-3.43164.67187c-.0586.001-.12208.002-.18458.00391a12.71965,12.71965,0,0,1,.627,1.89062A15.346,15.346,0,0,0,7.249,44.15625Z" /></svg>