<svg xmlns="http://www.w3.org/2000/svg" xmlns:xlink="http://www.w3.org/1999/xlink" version="1.1" x="0px" y="0px" viewBox="0 0 100 125" enable-background="new 0 0 100 100" xml:space="preserve"><path d="M95.116,34.869H5.048v24.864h8.939l-0.829,4c-0.063,0.301-0.005,0.609,0.165,0.867s0.429,0.434,0.729,0.496  c0.113,0.023,0.216,0.035,0.31,0.035c0.485,0,0.741-0.303,0.983-0.789l2.262-4.609h64.783l2.114,4.338l0.141,0.258  c0.25,0.498,0.508,0.803,0.993,0.803c0.094,0,0.196-0.012,0.308-0.035c0.302-0.062,0.562-0.238,0.731-0.496  c0.169-0.258,0.227-0.566,0.164-0.865l-0.83-4.002h9.104V34.869z M50.041,41.825h21.714v4.981H50.041V41.825z M50.041,47.793h21.714  v4.98H50.041V47.793z M50.041,53.762h21.714v4.982H50.041V53.762z M71.755,40.837H50.041v-4.98h-0.988v22.887H28.12V35.856l43.635,0  V40.837z M6.036,35.856h21.096v22.888H6.036V35.856z M14.628,63.598l-0.157,0.287c-0.084,0.17-0.133,0.24-0.13,0.258  c-0.017-0.002-0.045-0.006-0.088-0.016c-0.058-0.012-0.09-0.049-0.104-0.07c-0.014-0.021-0.035-0.064-0.023-0.123l0.871-4.201h1.513  L14.628,63.598z M85.875,63.936c0.012,0.057-0.01,0.1-0.023,0.121s-0.046,0.059-0.105,0.072c-0.032,0.006-0.056,0.01-0.067,0.014  c-0.026-0.035-0.077-0.111-0.158-0.273l-2.029-4.137h1.513L85.875,63.936z M94.128,58.744H72.743V35.856h21.385V58.744z"/><text x="0" y="115" fill="#000000" font-size="5px" font-weight="bold" font-family="'Helvetica Neue', Helvetica, Arial-Unicode, Arial, Sans-serif">Created by Eline Burggraaf</text><text x="0" y="120" fill="#000000" font-size="5px" font-weight="bold" font-family="'Helvetica Neue', Helvetica, Arial-Unicode, Arial, Sans-serif">from the Noun Project</text></svg>