<svg xmlns="http://www.w3.org/2000/svg" data-name="Слой 1" viewBox="0 0 100 125" x="0px" y="0px"><title>кресло 2</title><g><path d="M43.23068,71.61573c0.15765,0.94228.37436,1.89126,0.46325,2.85207,0.12584,1.36.183,2.72817,0.21616,4.09413a0.71394,0.71394,0,0,0,.70051.8518c1.38635,0.1019,2.77617.29074,4.16051,0.2601,3.7071-.082,7.41327-0.23534,11.11757-0.408a70.695,70.695,0,0,0,12.0602-1.79661c1.67517-.37282,3.35558-0.74742,4.99418-1.24977a16.44108,16.44108,0,0,0,2.79656-1.29415,1.979,1.979,0,0,0,1.10518-1.91081c-0.02658-4.29965-.23443-8.61486.06112-12.89422,0.21365-3.09373.116-6.34034,1.66475-9.2077a12.58012,12.58012,0,0,1,1.97446-2.61766c0.72731-.76569.7401-1.29347-0.284-1.71382a17.85607,17.85607,0,0,0-3.50381-1.2032c-4.15638-.75312-8.34148-1.34655-12.50194-2.07872-2.32714-.40953-4.62649-0.97617-6.93972-1.46562-1.35923-.2876-2.725-0.54566-4.0782-0.85885a2.21789,2.21789,0,0,1-.66876-0.48195,1.98889,1.98889,0,0,1,.85666-0.329c1.45994,0.26337,2.90084.63107,4.35915,0.905q6.21508,1.16733,12.43965,2.2838c2.30539,0.41181,4.63542.69713,6.9263,1.17417a29.02942,29.02942,0,0,1,3.89989,1.25342,1.69148,1.69148,0,0,1,.52263,2.96918c-2.28534,1.7021-3.09453,4.05731-3.273,6.7738-0.13821,2.10427-.50094,4.198-0.55937,6.30206-0.05178,1.864.26523,3.736,0.26065,5.604a60.871,60.871,0,0,1-.32875,6.12515,2.56758,2.56758,0,0,1-2.0477,2.352A1.24769,1.24769,0,0,0,78.622,77.65317c0.60038,3.04964,1.23687,6.09216,1.85194,9.13894,0.10281,0.50931.18642,1.02428,0.24421,1.54051A1.0957,1.0957,0,0,1,79.509,89.685a2.34811,2.34811,0,0,0-1.03941.197c-0.78243.46158-1.01928,0.03789-1.25034-.609q-1.88678-5.28231-3.80814-10.55225c-0.08717-.24066-0.20066-0.4718-0.26932-0.63157-2.64661.4992-5.21786,1.078-7.81881,1.4483-2.57578.36671-5.1768,0.61218-7.77528,0.749-3.14817.16577-6.30528,0.16295-9.45859,0.22943a7.23327,7.23327,0,0,1-.88063-0.02464c-1.71194-.17368-1.80979-0.19793-2.17457,1.50259-0.47368,2.20821-1.17337,4.38077-.95725,6.7183a12.07832,12.07832,0,0,1-.46252,2.98061c-0.09239.544-.17158,1.09089-0.28693,1.63a0.91074,0.91074,0,0,1-.26819.58182,24.00231,24.00231,0,0,1-2.89961.46121,1.18105,1.18105,0,0,1-.44145-0.819c-0.09425-2.46831-.12931-4.9388-0.2045-7.408-0.03172-1.0415-.21772-2.08747-0.155-3.12057,0.09895-1.63012-.90757-2.23977-2.17576-2.74871-2.06376-.82821-3.58758-2.42642-5.28761-3.77676-1.0852-.862-2.24142-1.63459-3.54045-2.5735-0.5377,1.49047-1.02321,2.78465-1.4694,4.09225-0.27216.79761-.4985,1.61195-0.71729,2.42632a0.57824,0.57824,0,0,1-.88067.43114q-1.11137-.33931-2.24548-0.60286c-0.69465-.16167-0.8675-0.46862-0.62737-1.19005,0.76882-2.30979,1.46219-4.64479,2.17573-6.97281a0.7362,0.7362,0,0,0-.58548-1.10182c-1.42214-.24538-1.92381-1.32307-2.35862-2.50584a15.00619,15.00619,0,0,1-.8177-4.73572c-0.12065-3.3373-.50609-6.6662-0.82287-9.9947-0.1415-1.48679-.4414-2.95965-0.55477-4.44757-0.0779-1.02255.15143-2.071,0.05027-3.08875-0.221-2.22293-.54116-4.43713-0.86486-6.64844-0.404-2.75977-.81285-5.51994-1.29255-8.26719-0.47311-2.70951-1.12253-5.38993-1.54274-8.1066-0.74453-4.81344-1.3747-9.64458-2.04822-14.46895a1.33128,1.33128,0,0,1,.02895-0.3849c0.15106-.9417-0.04841-2.15752,1.00436-2.58037,1.10825-.44513,2.172.27076,3.04064,0.9032A4.974,4.974,0,0,0,20.95083,7.7582c1.28854-.00806,2.57622.29019,3.86886,0.40154,2.74563,0.23652,5.50279.36432,8.23869,0.6799,1.94644,0.22452,3.85344.79508,5.80026,1.01115a41.22063,41.22063,0,0,0,9.21659.223C50.79638,9.7695,53.336,8.90233,55.9745,8.37567a2.37481,2.37481,0,0,0,.64975-0.18093c1.24048-.66024,2.00036-0.42845,2.64874.846a12.35557,12.35557,0,0,1,1.18266,6.053c-0.09145,3.669-1.10013,7.17369-1.80892,10.73635-0.79313,3.98659-1.50439,7.99116-2.15752,12.00317-0.317,1.94712-.45306,3.92641-0.61068,5.896a17.1763,17.1763,0,0,0,.15133,5.90931,3.46563,3.46563,0,0,0,2.16426,2.743c2.31291,0.85493,4.56968,1.87361,6.91046,2.63857,3.7888,1.23816,7.6264,2.327,11.44405,3.47673,0.15559,0.04686.32076,0.06187,0.47635,0.10876,2.516,0.75823,2.98746,1.437,3.11815,4.61486,0.04422,1.0754.0312,2.15459,0.00475,3.23108a2.04813,2.04813,0,0,1-1.70463,2.30564,42.19926,42.19926,0,0,1-5.33517,1.153c-3.92335.53651-7.89029,0.78962-11.79127,1.44506-4.445.74685-8.8846,0.50681-13.335,0.43185C46.46319,71.76156,44.94556,71.67936,43.23068,71.61573ZM40.55443,88.27647q-0.10005,1.79037-.20013,3.58073l0.35227,0.00732c0-1.11289.00342-2.22582-.00708-3.3386a0.60956,0.60956,0,0,0-.15758-0.24028V81.12955L40.22679,81.097a3.44332,3.44332,0,0,0-.13838.777c0.08725,1.7206.19345,3.44033,0.30687,5.15945C40.42272,87.44933,40.50034,87.86192,40.55443,88.27647ZM42.773,62.80191A231.92046,231.92046,0,0,1,73.303,58.753a1.292,1.292,0,0,0-.55692-0.367c-2.83581-.93192-5.68182-1.83368-8.50707-2.79641-1.19574-.40746-2.34753-0.94328-3.52173-1.41474-0.95943-.38522-1.91767-0.77455-2.8882-1.12994a1.07737,1.07737,0,0,0-.6184.04822,10.3502,10.3502,0,0,1-1.62234.51788c-3.16317.37694-6.33183,0.7084-9.49989,1.04339a19.33008,19.33008,0,0,1-2.32831.151,1.84593,1.84593,0,0,1-.73024-0.481,1.12307,1.12307,0,0,1,.38468-0.445c0.70487-.06591,1.42013-0.02227,2.12458-0.09078q4.99759-.48606,9.99076-1.017c0.49394-.05192.95265-0.42911,0.50323-0.81784-0.90252-.78063-0.86313-1.80044-0.95091-2.77421-0.2596-2.87981-.56966-5.76418-0.62112-8.651-0.04917-2.7585.17878-5.52358,0.32766-8.28346,0.11744-2.17708.27873-4.35241,0.45814-6.52541,0.28616-3.46565.61081-6.92811,0.904-10.39321,0.10971-1.29673.12688-2.60283,0.276-3.89429,0.192-1.66185-.37185-2.1892-1.96584-1.77982-1.6979.43607-3.39892,0.8664-5.11291,1.23205A29.7093,29.7093,0,0,1,38.688,10.80947c-3.30753-.491-6.61614-0.97712-9.93052-1.41859C26.95868,9.15127,25.14666,9.011,23.341,8.82253c-1.0653-.1112-2.12991-0.2291-3.48413-0.3752A99.06731,99.06731,0,0,1,23.42694,24.9784a1.46779,1.46779,0,0,1,.4531-0.20107c2.62105-.12812,5.24185-0.27369,7.86461-0.35107,2.43084-.07172,4.86426-0.05148,7.296-0.10023,3.93887-.079,7.87693-0.21574,11.816-0.25407,1.29762-.01263,1.78892.47013,1.84612,1.78537,0.05732,1.31817-.21224,2.652-0.13863,3.96774,0.18505,3.30694.42528,6.61328,0.75213,9.90907,0.31365,3.16256.74253,6.31441,1.16275,9.46538,0.23777,1.78274-.562,3.08553-2.13173,3.27283-0.45126.05385-.91392,0.0034-1.36948,0.03132-2.4021.14722-4.8042,0.296-7.20485,0.4647-0.48507.03409-1.0766,0.43043-1.26994-.3098a2.0042,2.0042,0,0,1,1.16556-.63384c2.66013-.17007,5.32488-0.27669,7.98938-0.366,1.485-.04975,2.06871-0.55591,1.92683-2.01423-0.35848-3.68474-.78485-7.36287-1.182-11.04386a51.68644,51.68644,0,0,1-.42987-11.75148,1.53914,1.53914,0,0,0-1.53253-1.87986c-1.918-.08106-3.84186-0.10557-5.761-0.05922-4.09524.0989-8.1889,0.26167-12.28346,0.39061-1.10567.03482-2.21263,0.02945-3.31828,0.06494-1.82614.05861-3.65171,0.13544-5.46277,0.204,0.12193,1.93779.24049,3.61275,0.32958,5.28928,0.11895,2.23846.275,4.47745,0.30024,6.71751,0.01737,1.53809.26534,3.0686,1.51881,3.93095a62.87282,62.87282,0,0,0,6.239,3.5795c1.12344,0.596,2.40584.904,3.49794,1.54423,1.08594,0.6366,1.968,1.61488,3.03834,2.28558a7.52558,7.52558,0,0,1,3.66473,4.72149,49.76853,49.76853,0,0,1,.93745,6.18506A14.01293,14.01293,0,0,1,42.773,62.80191ZM19.78438,41.80618l-0.264.05611c0.23242,1.26925.54062,2.53018,0.681,3.80952,0.265,2.4155.48436,4.83853,0.63035,7.264,0.2424,4.027.34524,8.06335,0.64419,12.08555,0.12288,1.65331.3566,3.39268,1.89824,4.49692,1.12815,0.80807,2.29063,1.56825,3.41839,2.37685,2.40211,1.72229,4.78978,3.4647,7.18683,5.19406a16.99031,16.99031,0,0,0,5.35845,2.94449,3.29825,3.29825,0,0,0,3.38247-.92441c0.97168-.95667.49724-2.16264,0.43152-3.23667-0.15042-2.45771-.45374-4.90656-0.716-7.35676a68.5926,68.5926,0,0,0-.82609-6.86057c-0.44489-2.10928-1.345-4.11824-1.94419-6.20031a9.26592,9.26592,0,0,0-5.16593-5.9045c-2.305-1.122-4.68624-2.09257-7.06112-3.06325-1.01173-.41351-2.10874-0.61423-3.13654-0.99406-0.66274-.24492-1.26577-0.90058-1.9033-0.91127a2.11324,2.11324,0,0,1-2.1128-1.63441C20.135,42.56067,19.95249,42.18624,19.78438,41.80618Zm32.8798,29.59343,0.019-.27051a38.29771,38.29771,0,0,0,4.00674-.02125q7.1809-.75942,14.34513-1.67374c2.06231-.2613,4.11175-0.64312,6.15335-1.04054,0.93-.181,2.03411-0.49192,2.03376-1.63989-0.00063-2.07215-.21544-4.14577-0.3952-6.21405a0.87219,0.87219,0,0,0-.6235-0.56362,54.81406,54.81406,0,0,0-5.66379-.1898c-3.37584.15758-6.74777,0.43987-10.114,0.74981-2.38928.22-4.77613,0.50914-7.14689,0.87789-3.68874.57374-7.36664,1.22067-11.03973,1.88837-0.65376.11884-1.50094,0.27733-1.45712,1.23518,0.0803,1.75537.25147,3.50644,0.34576,5.26141a0.73334,0.73334,0,0,0,.8009.84C46.8424,70.86819,49.75268,71.1417,52.66418,71.39961ZM42.22383,60.59177c0.53785-1.80525.02574-3.74032-.38743-5.67348a7.66441,7.66441,0,0,0-2.93606-4.79162,78.62395,78.62395,0,0,0-10.21186-5.90443c-1.2151-.63317-2.73818-0.76278-3.59489-2.01662-0.62587-.916-1.61623-1.60558-1.65914-2.88589-0.10341-3.08544-.19181-6.17358-0.40452-9.25246a70.10243,70.10243,0,0,0-.83846-7.82934c-0.67912-3.69707-1.70394-7.32979-2.42019-11.02121a6.03963,6.03963,0,0,0-3.42494-4.41726c-0.89045-.46858-1.37112-0.362-1.533.614a9.89778,9.89778,0,0,0-.06051,2.76375q0.50348,4.19651,1.16168,8.374c0.3524,2.2455.71739,4.49583,1.23756,6.70619,0.46969,1.99577.3931,4.08,1.40027,6.01306a8.26091,8.26091,0,0,1,.83408,4.25837,10.21435,10.21435,0,0,0,.47908,3.78628,8.77415,8.77415,0,0,0,1.46813,3.36309,9.58525,9.58525,0,0,0,3.34307,2.10842,55.9235,55.9235,0,0,0,6.45843,2.39506,17.01249,17.01249,0,0,1,5.91676,3.10889,6.29374,6.29374,0,0,1,2.436,2.94261C40.31134,55.781,41.34472,58.261,42.22383,60.59177ZM55.20331,38.18921l0.404,0.0444c0.21371-1.53459.36421-3.08126,0.65475-4.60115,0.5488-2.87088,1.19373-5.72323,1.76788-8.58946,0.31836-1.5893.4724-3.21773,0.88088-4.7814a24.04074,24.04074,0,0,0,.50778-8.32144C59.30717,10.70988,58.93546,9.3997,57.55,9.04095Q56.37612,23.62159,55.20331,38.18921ZM76.80518,83.58973l2.12273,0.33191,0.01951,0.344-1.022.49907,1.277-.088-0.73135-4.00991-2.41807.529L76.08421,81.482h2.44336l0.06229,0.36536-1.79123.4576L76.84021,82.479l1.69454,0.15381L78.573,82.98037ZM25.327,76.91585c0.01627,0.30566.77632,0.92513-.37343,1.27194l0.68188,0.48534c0.75694-1.36673,1.12935-3.03152.79209-3.42758Zm50.514,1.1378,0.01436,0.21305a7.94747,7.94747,0,0,1,1.20018-.20911,2.181,2.181,0,0,1,.71889.2447,2.37431,2.37431,0,0,1-.55481.42873c-0.39173.1482-.82065,0.19733-1.214,0.34221a2.6208,2.6208,0,0,0-.57422.40958,6.60322,6.60322,0,0,0,1.75615-.36391c1.01345-.242,1.02312-0.77254.50473-1.5623ZM41.66979,87.02906c1.46145-.06753,1.57808-0.17634,1.46359-1.59845ZM42.804,88.97392V87.71569l-1.53024.2033,0.03038,0.27783h1.36522l0.06,0.26253-1.03894.566ZM74.5983,78.80505l-0.29708.16461,0.85386,2.0443,0.30189-.14347ZM43.97566,82.47623l-0.18383-.16313-0.89325,1.63964C44.0562,84.05659,43.69785,83.02779,43.97566,82.47623Zm-2.80707,9.69013-0.04286.26483h1.47876l-0.00329-.26483H41.16859Z"/><path d="M32.78648,38.54616c-0.48049.70883-.84729,1.30966-1.283,1.85548a1.5299,1.5299,0,0,1-.68416.23532,1.40806,1.40806,0,0,1-.1174-0.68081,14.78129,14.78129,0,0,1,.77271-1.35415,15.16052,15.16052,0,0,0-.69608-2.1686,2.47526,2.47526,0,0,0-.94792-0.72317c-0.29245-.18522-0.61444-0.3238-1.10978-0.57908a1.93375,1.93375,0,0,1,2.30633.14439c1.31,0.72808,1.46306.7424,2.00946-.65342,0.31327-.80028.93534-0.42723,1.419-0.55727a0.8317,0.8317,0,0,1,.32791.52319,0.75662,0.75662,0,0,1-.26873.55353,4.69139,4.69139,0,0,1-.83636.43662c1.11314,1.11353,1.11314,1.11353.37938,2.56513,0.37148,0.43049.74473,0.82937,1.07092,1.26358a1.08417,1.08417,0,0,1,.03763.51344,1.61659,1.61659,0,0,1-.57869-0.112C33.98221,39.414,33.40134,38.98189,32.78648,38.54616Zm0.61955-.72491-0.31636-1.184-0.87865.97055Z"/><path d="M43.37488,38.75141c-0.06421-.87286-0.06873-1.54922-0.18363-2.20628a4.29979,4.29979,0,0,0-.49261-0.781,3.82464,3.82464,0,0,1-.17968-0.79273,3.53023,3.53023,0,0,1,.76629.04532,2.03517,2.03517,0,0,1,.68536.35689,1.62278,1.62278,0,0,0,2.68659-.43458,1.68777,1.68777,0,0,1,.87-0.16106,1.87,1.87,0,0,1-.28711.93674c-1.04336.57845-.94835,1.60757-1.10961,2.53175a0.674,0.674,0,0,0,.29118.46292c0.43041,0.33207.88812,0.62878,1.37815,0.969-0.37087.68055-.882,0.42336-1.35142,0.14109-1.79652-1.08034-1.85029-1.06552-3.15941.53532a1.68515,1.68515,0,0,1-.79614.21943,1.72751,1.72751,0,0,1,.01374-0.80894A7.63825,7.63825,0,0,1,43.37488,38.75141Zm0.661-1.272L44.04476,37.811l1.44377,0.20489,0.10482-.29873-0.71185-.808Z"/></g><text x="0" y="115" fill="#000000" font-size="5px" font-weight="bold" font-family="'Helvetica Neue', Helvetica, Arial-Unicode, Arial, Sans-serif">Created by Tatyana</text><text x="0" y="120" fill="#000000" font-size="5px" font-weight="bold" font-family="'Helvetica Neue', Helvetica, Arial-Unicode, Arial, Sans-serif">from the Noun Project</text></svg>