<svg xmlns="http://www.w3.org/2000/svg" xmlns:xlink="http://www.w3.org/1999/xlink" version="1.1" x="0px" y="0px" viewBox="0 0 100 125" enable-background="new 0 0 100 100" xml:space="preserve"><path d="M64.605,40.52l0.282-0.995h10.287h0.091c0.161,0,0.304-0.065,0.41-0.171c0.103-0.106,0.166-0.251,0.166-0.41  c0-0.322-0.256-0.581-0.576-0.581h-0.091h-9.955l5.696-20.055h4.349c0.161,0,0.304-0.065,0.41-0.171  c0.103-0.106,0.166-0.249,0.166-0.41c0-0.322-0.256-0.581-0.576-0.581h-4.017l2.21-7.785c0.121-0.425,0.038-0.87-0.226-1.222  c-0.264-0.352-0.666-0.551-1.104-0.551h-0.784c-0.573,0-1.078,0.344-1.287,0.877l-2.536,6.478v-2.456H51.988v4.658h-5.063  c0.556-0.347,0.802-0.938,0.581-1.413l-1.217-2.645c0.287-0.556,0.447-1.187,0.447-1.853c0-1.42-0.732-2.672-1.833-3.394  c0.299-0.173,0.533-0.395,0.666-0.656c0.078-0.156,0.121-0.327,0.121-0.51c0-1.096-1.498-1.669-2.979-1.669  s-2.981,0.573-2.981,1.669c0,0.183,0.043,0.354,0.121,0.51c0.133,0.261,0.37,0.483,0.669,0.656  c-1.101,0.721-1.833,1.973-1.833,3.394c0,0.475,0.08,0.93,0.231,1.352l-1.451,3.142c-0.219,0.478,0.025,1.068,0.583,1.415h-4.819  l-3.399-8.68c-0.209-0.533-0.714-0.877-1.287-0.877H27.76c-0.435,0-0.837,0.199-1.101,0.551c-0.264,0.352-0.347,0.797-0.226,1.222  l2.21,7.785h-4.02c-0.158,0-0.302,0.063-0.407,0.171c-0.106,0.103-0.168,0.249-0.168,0.41c0,0.319,0.259,0.581,0.576,0.581h4.351  l5.696,20.055H24.622c-0.158,0-0.302,0.065-0.407,0.168c-0.106,0.106-0.168,0.251-0.168,0.412c0,0.319,0.259,0.581,0.576,0.581H35  l0.284,0.995l2.592,9.125c0.201,0.709,0.269,1.445,0.206,2.174h-7.149v3.494h-2.697v4.266h-3.612c-0.158,0-0.302,0.065-0.407,0.171  c-0.106,0.103-0.168,0.249-0.168,0.41c0,0.322,0.259,0.581,0.576,0.581h11.036l-0.282,0.995l-5.415,19.062h-5.339  c-0.158,0-0.302,0.063-0.407,0.168c-0.106,0.106-0.168,0.251-0.168,0.412c0,0.319,0.259,0.581,0.576,0.581h5.01l-3.2,11.267  c-0.121,0.422-0.038,0.867,0.226,1.219C26.923,94.799,27.325,95,27.76,95h0.787c0.573,0,1.078-0.344,1.287-0.88l4.374-11.164h31.473  l4.374,11.164c0.209,0.536,0.714,0.88,1.287,0.88h0.784c0.437,0,0.84-0.201,1.104-0.553s0.347-0.797,0.226-1.219l-3.2-11.267h5.008  c0.161,0,0.304-0.065,0.41-0.171c0.103-0.106,0.166-0.251,0.166-0.41c0-0.322-0.256-0.581-0.576-0.581h-5.339L64.51,61.737  l-0.282-0.995h11.036c0.161,0,0.304-0.063,0.41-0.171c0.103-0.103,0.166-0.249,0.166-0.41c0-0.322-0.256-0.581-0.576-0.581h-6.325  c1.099-0.264,1.918-1.259,1.918-2.446v-3.308c0-1.388-1.121-2.514-2.499-2.514h-6.576c0-0.561,0.075-1.121,0.231-1.667L64.605,40.52  z M53.748,14.248h12.011v2.257H53.748V14.248z M46.4,16.093c-0.02,0.023-0.05,0.048-0.091,0.07c-0.04,0.025-0.075,0.04-0.106,0.048  l-1.212-1.642l-0.01-0.013l0.158-0.096l0.4-0.236L46.4,16.093z M45.482,17.146h-5.988c0.045-0.038,0.085-0.08,0.121-0.128  l1.518-2.056c0.485,0.209,1.018,0.324,1.579,0.324c0.427,0,0.84-0.068,1.229-0.194l1.42,1.926  C45.397,17.066,45.437,17.111,45.482,17.146z M40.895,6.676c0.103-0.161,0.727-0.508,1.818-0.508c1.089,0,1.712,0.347,1.818,0.508  c-0.106,0.161-0.729,0.51-1.818,0.51C41.621,7.187,40.998,6.837,40.895,6.676z M42.712,8.348c1.584,0,2.871,1.295,2.871,2.888  c0,0.915-0.427,1.737-1.091,2.265c-0.201,0.158-0.422,0.294-0.661,0.397h-0.003c-0.342,0.146-0.721,0.226-1.116,0.226  c-1.584,0-2.871-1.295-2.871-2.888C39.841,9.643,41.128,8.348,42.712,8.348z M39.437,14.225l0.556,0.332l-1.222,1.654  c-0.028-0.008-0.063-0.023-0.106-0.048c-0.038-0.023-0.068-0.048-0.091-0.07L39.437,14.225z M65.809,19.303L59.21,36.146  l0.465-3.182c0.063-0.437-0.043-0.877-0.297-1.234l1.129-1.966c0.41-0.716,0.166-1.631-0.546-2.044  c-0.344-0.201-0.744-0.254-1.126-0.151c-0.385,0.103-0.706,0.352-0.905,0.696l-0.513,0.895v-2.262c0-0.825-0.666-1.496-1.486-1.496  s-1.488,0.671-1.488,1.496v2.262l-0.513-0.895c-0.199-0.344-0.518-0.593-0.902-0.696c-0.382-0.103-0.784-0.05-1.129,0.151  c-0.342,0.199-0.588,0.52-0.691,0.907c-0.103,0.385-0.05,0.789,0.148,1.136l1.126,1.966c-0.251,0.357-0.359,0.797-0.294,1.234  l0.664,4.532c0.045,0.329,0.191,0.628,0.402,0.867H41.548l-7.469-19.06H65.809z M53.969,53.067l2.552,6.513h-9.349v-4.266H45.04  l0.88-2.247c0.45-1.144,0.45-2.403,0-3.547l-3.527-9h15.103l-3.527,9C53.519,50.663,53.519,51.923,53.969,53.067z M46.018,56.475  v2.016h-2.222l0.789-2.016H46.018z M57.348,37.783H54.52c-0.264,0-0.488-0.196-0.525-0.458l-0.654-4.462l-0.01-0.068  c-0.023-0.156,0.02-0.309,0.123-0.427s0.244-0.186,0.4-0.186h4.155c0.156,0,0.299,0.068,0.402,0.186  c0.101,0.118,0.146,0.271,0.123,0.427l-0.01,0.068l-0.654,4.462C57.833,37.586,57.607,37.783,57.348,37.783z M52.358,29.183  c-0.045-0.078-0.058-0.168-0.035-0.254c0.023-0.088,0.081-0.161,0.156-0.204c0.05-0.03,0.108-0.045,0.166-0.045  c0.028,0,0.058,0.003,0.088,0.01c0.086,0.025,0.156,0.078,0.201,0.156l1.247,2.174h-0.327c-0.138,0-0.276,0.018-0.412,0.053  L52.358,29.183z M55.598,31.02v-4.123c0-0.184,0.151-0.334,0.334-0.334c0.183,0,0.332,0.151,0.332,0.334v4.123H55.598z   M58.424,31.073c-0.133-0.035-0.274-0.053-0.415-0.053h-0.324l1.247-2.174c0.045-0.078,0.116-0.131,0.201-0.156  c0.088-0.023,0.176-0.01,0.254,0.035c0.158,0.093,0.211,0.297,0.121,0.458L58.424,31.073z M32.086,52.981h5.777l-0.332,1.171h-5.445  V52.981z M29.389,58.492v-2.016h7.481l-0.571,2.016H29.389z M33.813,80.799l-0.39,0.995l-0.065,0.166l-0.354,0.907L28.76,93.695  c-0.035,0.088-0.118,0.143-0.214,0.143H27.76c-0.098,0-0.156-0.055-0.181-0.091c-0.025-0.033-0.063-0.106-0.038-0.201l3.291-11.586  l0.332-1.161l5.412-19.062l0.284-0.995l0.048-0.166l0.261-0.923l0.02-0.073l0.309-1.089l0.573-2.016l0.659-2.323l0.254-0.89  c0.028-0.093,0.05-0.186,0.073-0.282c0.093-0.382,0.156-0.772,0.183-1.161c0.06-0.837-0.025-1.679-0.256-2.494l-2.501-8.806  l-0.284-0.995l-0.045-0.166l-0.284-0.995l-5.696-20.055l-0.329-1.161l-2.303-8.105c-0.025-0.096,0.013-0.168,0.038-0.201  c0.025-0.035,0.083-0.091,0.181-0.091h0.787c0.096,0,0.178,0.055,0.214,0.143l3.233,8.253l0.455,1.161l7.861,20.055l0.39,0.995  l0.065,0.166l0.39,0.995l3.693,9.427c0.339,0.87,0.339,1.825,0,2.695l-0.375,0.955l-0.671,1.717l-0.455,1.161l-0.789,2.016  l-0.427,1.089l-0.028,0.073l-0.365,0.923l-0.063,0.166l-0.392,0.995L33.813,80.799z M40.879,79.693c0,0.01-0.005,0.018-0.015,0.018  h-3.587c-0.01,0-0.01,0-0.015-0.01c-0.005-0.008-0.005-0.01,0-0.015l3.592-5.737c0,0,0,0,0.003,0c0.008,0,0.02,0.005,0.023,0.018  V79.693z M42.033,80.799h-0.767c0.447-0.166,0.767-0.598,0.767-1.106V80.799z M44.049,79.711h-0.86v-8.587h0.86V79.711z   M47.189,79.711h-0.862v-7.265h0.862V79.711z M50.543,79.711h-1.136v-7.617h1.136V79.711z M53.172,79.711h-0.38v-7.064h0.38V79.711z   M54.329,80.799V80.07c0.111,0.337,0.372,0.606,0.706,0.729H54.329z M59.037,79.701c-0.005,0.01-0.005,0.01-0.013,0.01h-3.59  c-0.01,0-0.015-0.008-0.015-0.018l-0.003-5.737c0.003-0.003,0.008-0.005,0.018-0.005c0.005,0,0.01,0.003,0.015,0.008l3.587,5.727  C59.042,79.691,59.042,79.693,59.037,79.701z M59.432,80.799c0.256-0.098,0.478-0.284,0.616-0.538  c0.206-0.375,0.194-0.835-0.033-1.197l-3.587-5.727c-0.284-0.447-0.812-0.651-1.317-0.503c-0.377,0.108-0.664,0.392-0.782,0.747  v-2.097h-2.632v-0.553h-3.444v0.352h-3.049v-1.322h-3.17v4.005c0-0.53-0.339-0.985-0.845-1.131  c-0.505-0.148-1.033,0.055-1.315,0.503l-3.59,5.727c-0.226,0.362-0.239,0.822-0.033,1.197c0.138,0.254,0.359,0.44,0.618,0.538  h-1.817l7.471-19.062h14.842l7.469,19.062H59.432z M68.358,52.473c0.742,0,1.345,0.606,1.345,1.352v3.308  c0,0.747-0.603,1.355-1.345,1.355H63.59l-0.03-0.103h2.547c1.378,0,2.499-1.129,2.499-2.514v-0.784c0-1.385-1.121-2.514-2.499-2.514  h-4.183c-0.01-0.033-0.015-0.068-0.023-0.101H68.358z M63.23,57.225l-0.993-3.489h3.869c0.742,0,1.345,0.608,1.345,1.352v0.784  c0,0.744-0.603,1.352-1.345,1.352H63.23z M60.726,52.473c0.015,0.091,0.033,0.178,0.05,0.266c0.035,0.176,0.078,0.349,0.126,0.523  l0.174,0.611l0.953,3.351l0.329,1.161l0.03,0.103l0.329,1.161l0.264,0.925l0.048,0.166l0.282,0.995l5.415,19.062l0.332,1.161  l3.291,11.586c0.025,0.096-0.013,0.168-0.038,0.201c-0.025,0.035-0.083,0.091-0.183,0.091h-0.784c-0.096,0-0.178-0.055-0.214-0.143  l-4.243-10.827l-0.354-0.907l-0.065-0.166l-0.39-0.995l-7.469-19.062l-0.392-0.995l-0.063-0.166L57.76,59.58l-0.397-1.016  l-0.42-1.068l-1.9-4.854c-0.342-0.87-0.342-1.825,0-2.695l3.693-9.427l0.39-0.995l0.065-0.166l0.39-0.995l7.861-20.055l0.018-0.043  h0.06v-0.156l0.377-0.963l3.233-8.253c0.035-0.088,0.118-0.143,0.214-0.143h0.784c0.101,0,0.158,0.055,0.183,0.091  c0.025,0.033,0.063,0.106,0.038,0.201l-2.303,8.105l-0.329,1.161l-5.699,20.055l-0.284,0.995l-0.045,0.166l-0.284,0.995  l-2.501,8.806c-0.183,0.651-0.274,1.317-0.274,1.986C60.631,51.702,60.661,52.089,60.726,52.473z"/><path d="M42.672,12.023c0.045,0,0.091-0.008,0.133-0.02l0.852,0.857c0.095,0.096,0.254,0.096,0.349,0  c0.096-0.098,0.096-0.256,0-0.354l-0.882-0.89v-0.05c0-0.161-0.081-0.302-0.206-0.382V8.999c0-0.138-0.108-0.249-0.246-0.249  c-0.136,0-0.246,0.111-0.246,0.249v2.185c-0.126,0.08-0.209,0.221-0.209,0.382C42.217,11.817,42.42,12.023,42.672,12.023z"/><text x="0" y="115" fill="#000000" font-size="5px" font-weight="bold" font-family="'Helvetica Neue', Helvetica, Arial-Unicode, Arial, Sans-serif">Created by Rebecca</text><text x="0" y="120" fill="#000000" font-size="5px" font-weight="bold" font-family="'Helvetica Neue', Helvetica, Arial-Unicode, Arial, Sans-serif">from the Noun Project</text></svg>